<svg width="100" height="100" viewBox="0 0 100 100" fill="none" xmlns="http://www.w3.org/2000/svg">
<g clip-path="url(#clip0_285_7067)">
<circle cx="50.5" cy="50" r="50" fill="#003B59"/>
<path fill-rule="evenodd" clip-rule="evenodd" d="M34.4725 27.2002H69.5275L72.5275 34.2002H78.9944L84.2944 44.8002H82.3V61.2002H83.8V65.2002H85.5V66.8002H18.5V65.2002H20.2V61.2002H21.7V44.8002H19.7056L25.0056 34.2002H31.4725L34.4725 27.2002ZM33.2132 34.2002H49.1686L52 31.3688L54.8314 34.2002H70.7868L68.4725 28.8002H35.5275L33.2132 34.2002ZM53.9177 35.5493L52 33.6316L50.0823 35.5493L43.2815 43.2002H60.7185L53.9177 35.5493ZM62.8593 43.2002H81.7056L78.0056 35.8002H56.2815L62.8593 43.2002ZM80.7 44.8002H78.3V61.2002H80.7V44.8002ZM82.2 62.8002H76.8V65.2002H82.2V62.8002ZM75.2 65.2002V61.2002H76.7V44.8002H70.8V61.2002H72.3V65.2002H75.2ZM70.7 65.2002V62.8002H65.3V65.2002H70.7ZM63.7 65.2002V61.2002H65.2V44.8002H61.3V65.2002H63.7ZM59.7 65.2002V44.8002H44.3V65.2002H59.7ZM42.7 65.2002V44.8002H38.8V61.2002H40.3V65.2002H42.7ZM38.7 65.2002V62.8002H33.3V65.2002H38.7ZM31.7 65.2002V61.2002H33.2V44.8002H27.3V61.2002H28.8V65.2002H31.7ZM27.2 65.2002V62.8002H21.8V65.2002H27.2ZM23.3 61.2002H25.7V44.8002H23.3V61.2002ZM22.2944 43.2002H41.1407L47.7185 35.8002H25.9944L22.2944 43.2002ZM34.8 44.8002V61.2002H37.2V44.8002H34.8ZM66.8 44.8002V61.2002H69.2V44.8002H66.8ZM46.7 47.7002H57.3059V60.8002H46.7V47.7002ZM52.8059 59.2002H55.7059V55.0502H52.8059V59.2002ZM52.8059 53.4502H55.7059V49.3002H52.8059V53.4502ZM51.2 49.3002H48.3V53.4502H51.2V49.3002ZM51.2 55.0502H48.3V59.2002H51.2V55.0502Z" fill="white"/>
</g>
<defs>
<clipPath id="clip0_285_7067">
<rect width="100" height="100" fill="white"/>
</clipPath>
</defs>
</svg>
