<svg width="30" height="30" viewBox="0 0 30 30" fill="none" xmlns="http://www.w3.org/2000/svg">
<path fill-rule="evenodd" clip-rule="evenodd" d="M5.87786 24.1217C5.52639 23.7702 5.52639 23.2004 5.87786 22.8489L22.8484 5.87835C23.1999 5.52688 23.7697 5.52688 24.1212 5.87835C24.4727 6.22983 24.4727 6.79967 24.1212 7.15115L7.15065 24.1217C6.79918 24.4732 6.22933 24.4732 5.87786 24.1217Z" fill="#79848A"/>
<path fill-rule="evenodd" clip-rule="evenodd" d="M5.87786 5.87835C6.22933 5.52688 6.79918 5.52688 7.15065 5.87835L24.1212 22.8489C24.4727 23.2004 24.4727 23.7702 24.1212 24.1217C23.7697 24.4732 23.1999 24.4732 22.8484 24.1217L5.87786 7.15114C5.52639 6.79967 5.52639 6.22982 5.87786 5.87835Z" fill="#79848A"/>
</svg>
