<svg width="36" height="40" viewBox="0 0 36 40" fill="none" xmlns="http://www.w3.org/2000/svg">
<path fill-rule="evenodd" clip-rule="evenodd" d="M22.6667 2.42048C23.5821 3.3622 24.0809 4.63163 24.052 5.94374C24.0844 7.42902 25.8975 8.47101 27.2429 7.67849L27.2572 7.67006C28.7514 6.81386 30.3115 6.90018 31.6257 7.5227C34.1104 8.69961 35.8264 11.6981 35.6023 14.4353C35.484 15.8804 34.7862 17.2768 33.3053 18.1429L33.2945 18.1493C31.9748 18.9051 31.9841 21.0804 33.2968 21.8356C34.8148 22.7089 35.5476 24.1078 35.6709 25.5788C35.9033 28.3515 34.098 31.3418 31.5806 32.4974C30.2544 33.1062 28.6836 33.1898 27.1894 32.3299C25.8287 31.5539 24.0442 32.6053 24.0517 34.1745L24.0518 34.1878C24.0435 35.9104 23.1827 37.2174 21.985 38.0435C19.7186 39.6068 16.2547 39.6033 13.9938 38.031C12.8005 37.2012 11.9472 35.8927 11.9444 34.173C11.9239 32.6297 10.1057 31.6098 8.76513 32.3921L8.74453 32.4041C7.22782 33.2543 5.65518 33.1689 4.32837 32.5394C1.82409 31.3513 0.112906 28.3225 0.361925 25.5657C0.493043 24.1141 1.20553 22.7166 2.69649 21.8541C3.9586 21.1254 3.96019 18.8758 2.69754 18.1468L2.69363 18.1446C1.19503 17.2728 0.490086 15.8702 0.380865 14.4113C0.174423 11.6538 1.95378 8.6692 4.44967 7.49665C5.76594 6.87827 7.33101 6.7815 8.8231 7.63647L8.84142 7.64697C10.1065 8.39782 11.9304 7.41265 11.9612 5.82674C11.9515 0.656891 19.4856 -0.851884 22.6667 2.42048ZM14.7212 5.8293L14.7211 5.85574C14.6694 9.45726 10.6267 11.9051 7.44357 10.027C6.84798 9.68863 5.62325 9.99471 5.62325 9.99471C4.25388 10.9689 2.99867 12.4088 3.13316 14.2052C3.18319 14.8734 3.46473 15.4001 4.08143 15.7589L4.07752 15.7566C7.14736 17.5289 7.14736 22.4713 4.07752 24.2437C3.4669 24.5974 3.1725 25.1302 3.11073 25.8139C2.96456 27.4322 4.03996 29.3477 5.51139 30.0458C6.12275 30.3359 6.74094 30.3597 7.38638 30.0011C7.3823 30.0035 7.37822 30.0058 7.37414 30.0082L7.39485 29.9964L7.38638 30.0011C10.5079 28.1918 14.6657 30.4353 14.7043 34.15L14.7044 34.1644C14.7044 34.8689 15.0158 35.38 15.5695 35.7651C16.8972 36.6884 19.0873 36.6894 20.4179 35.7716C20.9735 35.3883 21.2868 34.8795 21.2917 34.18L21.2918 34.1878V34.1746L21.2917 34.18C21.28 30.5338 25.3185 28.0815 28.5608 29.9347L28.5649 29.9371C29.1774 30.29 29.7943 30.2805 30.4292 29.989C31.9018 29.3131 33.0569 27.4366 32.9206 25.8093C32.8651 25.1475 32.5759 24.605 31.9204 24.2279C28.7963 22.4306 28.7861 17.5575 31.9161 15.758L31.9119 15.7605L31.9227 15.7542L31.9161 15.758C34.1472 14.4466 32.1604 10.8299 30.4443 10.017C29.8407 9.73116 29.246 9.71383 28.6352 10.0616L28.6438 10.0565L28.6294 10.0649L28.6352 10.0616C25.4919 11.9046 21.3298 9.60903 21.2918 5.95132C21.2916 5.93334 21.2918 5.91535 21.2923 5.89737C21.3089 5.31924 21.0908 4.75901 20.6877 4.34429C19.2048 2.81884 14.7084 3.16174 14.7212 5.8293Z" fill="#AFBDC6"/>
<path fill-rule="evenodd" clip-rule="evenodd" d="M18.0069 16.5297C16.0903 16.5297 14.5367 18.0833 14.5367 19.9999C14.5367 21.9165 16.0903 23.4701 18.0069 23.4701C19.9235 23.4701 21.4771 21.9165 21.4771 19.9999C21.4771 18.0833 19.9235 16.5297 18.0069 16.5297ZM11.7767 19.9999C11.7767 16.559 14.566 13.7697 18.0069 13.7697C21.4478 13.7697 24.2371 16.559 24.2371 19.9999C24.2371 23.4408 21.4478 26.2301 18.0069 26.2301C14.566 26.2301 11.7767 23.4408 11.7767 19.9999Z" fill="#AFBDC6"/>
</svg>
