<svg width="30" height="30" viewBox="0 0 30 30" fill="none" xmlns="http://www.w3.org/2000/svg">
<path d="M20.69 25.37V23.0656C20.69 21.8433 20.2105 20.671 19.3568 19.8067C18.5032 18.9423 17.3454 18.4568 16.1381 18.4568H7.03433C5.82709 18.4568 4.66929 18.9423 3.81564 19.8067C2.962 20.671 2.48242 21.8433 2.48242 23.0656V25.37M27.5179 25.37V23.0656C27.5171 22.0444 27.1815 21.0524 26.5635 20.2454C25.9456 19.4383 25.0805 18.8619 24.104 18.6066M19.5521 4.78016C20.5312 5.03399 21.399 5.61055 22.0188 6.41894C22.6385 7.22734 22.9749 8.22159 22.9749 9.24494C22.9749 10.2683 22.6385 11.2625 22.0188 12.0709C21.399 12.8793 20.5312 13.4559 19.5521 13.7097M16.1381 9.23917C16.1381 11.7845 14.1002 13.848 11.5862 13.848C9.07228 13.848 7.03433 11.7845 7.03433 9.23917C7.03433 6.6938 9.07228 4.63037 11.5862 4.63037C14.1002 4.63037 16.1381 6.6938 16.1381 9.23917Z" stroke="white" stroke-width="2" stroke-linecap="round" stroke-linejoin="round"/>
</svg>
