<svg width="30" height="30" viewBox="0 0 30 30" fill="none" xmlns="http://www.w3.org/2000/svg">
<path d="M7.50968 28.7405C7.64128 28.7413 7.77174 28.716 7.89358 28.6663C8.01542 28.6165 8.12624 28.5432 8.21968 28.4505L23.4397 13.2305C23.6259 13.0431 23.7305 12.7897 23.7305 12.5255C23.7305 12.2613 23.6259 12.0079 23.4397 11.8205L17.8097 6.2405C17.6223 6.05425 17.3689 5.94971 17.1047 5.94971C16.8405 5.94971 16.587 6.05425 16.3997 6.2405L1.22968 21.4605C1.13457 21.5563 1.05984 21.6704 1.01 21.7958C0.960157 21.9213 0.936235 22.0555 0.939674 22.1905L1.07968 27.6305C1.07968 27.8957 1.18503 28.1501 1.37257 28.3376C1.56011 28.5251 1.81446 28.6305 2.07968 28.6305L7.51968 28.7705L7.50968 28.7405ZM21.3197 12.5205L7.10968 26.7305L3.04967 26.6305L2.94968 22.5705L17.1597 8.3605L21.3197 12.5205Z" fill="#012537"/>
<path d="M22.7299 13.5208C22.8615 13.5216 22.9919 13.4963 23.1138 13.4466C23.2356 13.3968 23.3464 13.3235 23.4399 13.2308L28.3899 8.28079C28.5761 8.09343 28.6807 7.83998 28.6807 7.57579C28.6807 7.31161 28.5761 7.05816 28.3899 6.87079L22.8099 1.29079C22.6225 1.10454 22.3691 1 22.1049 1C21.8407 1 21.5872 1.10454 21.3999 1.29079L16.4499 6.29079C16.2636 6.47816 16.1591 6.73161 16.1591 6.99579C16.1591 7.25998 16.2636 7.51343 16.4499 7.70079L22.0299 13.2308C22.2161 13.4155 22.4675 13.5197 22.7299 13.5208ZM26.2699 7.52079L22.7299 11.0608L18.5699 6.90079L22.1099 3.41079L26.2699 7.52079Z" fill="#012537"/>
<path fill-rule="evenodd" clip-rule="evenodd" d="M13.0605 29C13.0605 28.5858 13.3963 28.25 13.8105 28.25H28.3105C28.7248 28.25 29.0605 28.5858 29.0605 29C29.0605 29.4142 28.7248 29.75 28.3105 29.75H13.8105C13.3963 29.75 13.0605 29.4142 13.0605 29Z" fill="#012537"/>
</svg>
