<svg width="26" height="35" viewBox="0 0 26 35" fill="none" xmlns="http://www.w3.org/2000/svg">
<path d="M26 27.5832V35H1.22066V27.5832H9.88732V9.01051C9.52113 9.50088 8.93114 10.0117 8.11737 10.5429C7.34429 11.0333 6.48983 11.5032 5.55399 11.9527C4.61815 12.4022 3.64163 12.77 2.62441 13.056C1.64789 13.3421 0.773083 13.4851 0 13.4851V5.82312C0.732394 5.82312 1.62754 5.59837 2.68545 5.14886C3.74335 4.65849 4.78091 4.0864 5.79812 3.43257C6.81534 2.77875 7.69014 2.14536 8.42253 1.5324C9.19562 0.878575 9.68388 0.367776 9.88732 0H18.2488V27.5832H26Z" fill="#DAE4EA"/>
</svg>
