<svg width="17" height="17" viewBox="0 0 17 17" fill="none" xmlns="http://www.w3.org/2000/svg">
<path fill-rule="evenodd" clip-rule="evenodd" d="M8.5 3C8.77614 3 9 3.26863 9 3.6V9.35385C9 9.68522 8.77614 9.95385 8.5 9.95385C8.22386 9.95385 8 9.68522 8 9.35385V3.6C8 3.26863 8.22386 3 8.5 3ZM8.5 11.1231C8.77614 11.1231 9 11.3917 9 11.7231V12.4C9 12.7314 8.77614 13 8.5 13C8.22386 13 8 12.7314 8 12.4V11.7231C8 11.3917 8.22386 11.1231 8.5 11.1231Z" fill="#79848A"/>
<path fill-rule="evenodd" clip-rule="evenodd" d="M8.5 1.3318C4.54111 1.3318 1.3318 4.54111 1.3318 8.5C1.3318 12.4589 4.54111 15.6682 8.5 15.6682C12.4589 15.6682 15.6682 12.4589 15.6682 8.5C15.6682 4.54111 12.4589 1.3318 8.5 1.3318ZM0 8.5C0 3.80558 3.80558 0 8.5 0C13.1944 0 17 3.80558 17 8.5C17 13.1944 13.1944 17 8.5 17C3.80558 17 0 13.1944 0 8.5Z" fill="#79848A"/>
</svg>

