<svg width="26" height="25" viewBox="0 0 26 25" fill="none" xmlns="http://www.w3.org/2000/svg">
<path d="M13.1777 6.44531C12.4438 6.44531 11.7263 6.66296 11.116 7.07072C10.5058 7.47848 10.0301 8.05805 9.74928 8.73614C9.4684 9.41422 9.39491 10.1604 9.5381 10.8802C9.68129 11.6001 10.0347 12.2613 10.5537 12.7803C11.0727 13.2993 11.7339 13.6527 12.4538 13.7959C13.1736 13.9391 13.9198 13.8656 14.5978 13.5847C15.2759 13.3038 15.8555 12.8282 16.2633 12.2179C16.671 11.6077 16.8887 10.8902 16.8887 10.1563C16.8887 9.17205 16.4977 8.22816 15.8018 7.53222C15.1058 6.83629 14.1619 6.44531 13.1777 6.44531ZM13.1777 12.6953C12.6756 12.6953 12.1847 12.5464 11.7671 12.2674C11.3496 11.9884 11.0241 11.5919 10.8319 11.1279C10.6398 10.664 10.5895 10.1534 10.6875 9.6609C10.7854 9.16837 11.0273 8.71596 11.3823 8.36086C11.7374 8.00577 12.1899 7.76395 12.6824 7.66598C13.1749 7.568 13.6854 7.61829 14.1494 7.81046C14.6133 8.00264 15.0099 8.32808 15.2889 8.74562C15.5679 9.16317 15.7168 9.65407 15.7168 10.1563C15.7168 10.8297 15.4493 11.4755 14.9731 11.9516C14.497 12.4278 13.8511 12.6953 13.1777 12.6953ZM13.1777 1.75781C10.9511 1.7604 8.81645 2.64606 7.242 4.22051C5.66754 5.79497 4.78188 7.92964 4.7793 10.1563C4.7793 13.1748 6.17969 16.3809 8.8291 19.4277C10.0249 20.8097 11.3708 22.0543 12.8418 23.1387C12.9403 23.2076 13.0575 23.2445 13.1777 23.2445C13.2979 23.2445 13.4152 23.2076 13.5137 23.1387C14.9847 22.0543 16.3306 20.8097 17.5264 19.4277C20.1758 16.3809 21.5762 13.1777 21.5762 10.1563C21.5736 7.92964 20.6879 5.79497 19.1135 4.22051C17.539 2.64606 15.4043 1.7604 13.1777 1.75781ZM13.1777 21.9248C11.7129 20.7939 5.95117 15.9785 5.95117 10.1563C5.95117 8.23965 6.71254 6.40154 8.06778 5.0463C9.42303 3.69106 11.2611 2.92969 13.1777 2.92969C15.0943 2.92969 16.9324 3.69106 18.2877 5.0463C19.6429 6.40154 20.4043 8.23965 20.4043 10.1563C20.4043 15.9785 14.6426 20.7939 13.1777 21.9248Z" fill="#DAE4EA"/>
</svg>
