<svg width="29" height="28" viewBox="0 0 29 28" fill="none" xmlns="http://www.w3.org/2000/svg">
<path fill-rule="evenodd" clip-rule="evenodd" d="M6.79289 6.29306C7.18342 5.90254 7.81658 5.90254 8.20711 6.29306L21.4856 19.5715C21.8761 19.9621 21.8761 20.5952 21.4856 20.9858C21.0951 21.3763 20.4619 21.3763 20.0714 20.9858L6.79289 7.70727C6.40237 7.31675 6.40237 6.68358 6.79289 6.29306Z" fill="#AFBDC6"/>
<path fill-rule="evenodd" clip-rule="evenodd" d="M6.79289 20.9856C6.40237 20.5951 6.40237 19.9619 6.79289 19.5714L20.0714 6.29289C20.4619 5.90237 21.0951 5.90237 21.4856 6.29289C21.8761 6.68342 21.8761 7.31658 21.4856 7.70711L8.20711 20.9856C7.81658 21.3761 7.18342 21.3761 6.79289 20.9856Z" fill="#AFBDC6"/>
<rect x="1.5" y="1" width="26" height="26" rx="4" stroke="#AFBDC6" stroke-width="2"/>
</svg>
