<svg width="100" height="100" viewBox="0 0 100 100" fill="none" xmlns="http://www.w3.org/2000/svg">
<g clip-path="url(#clip0_285_7074)">
<circle cx="50.5" cy="50" r="50" fill="#003B59"/>
<path d="M40.9485 45.6658C37.7951 47.9927 35.4566 51.2556 34.2663 54.9894C33.076 58.7232 33.0946 62.7375 34.3194 66.4601C35.5442 70.1827 37.9127 73.4238 41.0875 75.7215C44.2623 78.0191 48.0812 79.256 52.0002 79.256C55.9191 79.256 59.7381 78.0191 62.9129 75.7215C66.0876 73.4238 68.4562 70.1827 69.681 66.4601C70.9058 62.7375 70.9244 58.7232 69.7341 54.9894C68.5437 51.2556 66.2053 47.9927 63.0519 45.6658L74.3442 26.1056C74.4219 25.9673 74.4622 25.8111 74.4613 25.6525C74.4604 25.4938 74.4182 25.3381 74.3388 25.2008C74.2595 25.0634 74.1458 24.949 74.0089 24.8688C73.872 24.7887 73.7166 24.7455 73.5579 24.7437H58.8798C58.7204 24.7437 58.5639 24.7856 58.4258 24.8653C58.2878 24.945 58.1732 25.0596 58.0935 25.1976L52.0002 35.7518L45.9069 25.1976C45.8272 25.0596 45.7126 24.945 45.5745 24.8653C45.4365 24.7856 45.2799 24.7437 45.1206 24.7437H30.4425C30.2838 24.7455 30.1284 24.7887 29.9915 24.8688C29.8546 24.949 29.7409 25.0634 29.6616 25.2008C29.5822 25.3381 29.54 25.4938 29.5391 25.6525C29.5381 25.8111 29.5785 25.9673 29.6562 26.1056L40.9485 45.6658ZM68.7975 60.6081C68.7975 63.9303 67.8123 67.1779 65.9666 69.9402C64.1209 72.7025 61.4975 74.8555 58.4282 76.1268C55.3589 77.3981 51.9816 77.7308 48.7232 77.0827C45.4648 76.4345 42.4719 74.8348 40.1227 72.4856C37.7736 70.1365 36.1738 67.1435 35.5257 63.8851C34.8775 60.6268 35.2102 57.2494 36.4815 54.1801C37.7529 51.1108 39.9058 48.4874 42.6681 46.6417C45.4304 44.796 48.678 43.8108 52.0002 43.8108C56.4536 43.8159 60.7231 45.5872 63.8721 48.7362C67.0211 51.8852 68.7924 56.1548 68.7975 60.6081ZM71.9853 26.5596L61.5383 44.6543C61.0196 44.3426 60.486 44.0569 59.9376 43.7972L69.8934 26.5596H71.9853ZM67.7987 26.5596L58.2461 43.0963C57.0549 42.6697 55.823 42.3673 54.5697 42.1938L63.6012 26.5596H67.7987ZM59.4037 26.5596H61.5047L52.5704 42.024C51.8626 41.9815 51.1526 41.9982 50.4476 42.0739L59.4037 26.5596ZM44.5967 26.5596L50.9524 37.5677L49.9046 39.3836L42.4956 26.5596H44.5967ZM40.3992 26.5596L48.8559 41.1986L48.1641 42.3971C47.3458 42.575 46.5407 42.8086 45.7543 43.0963L36.2017 26.5596H40.3992ZM34.107 26.5596L44.0628 43.7972C43.5132 44.0575 42.9796 44.3432 42.4621 44.6543L32.0151 26.5596H34.107Z" fill="white"/>
<path d="M49.9658 53.3818L48.593 55.7752C48.5554 55.8395 48.5044 55.895 48.4434 55.938C48.3825 55.9809 48.313 56.0102 48.2398 56.024L45.4877 56.5606C45.0788 56.639 44.6984 56.8256 44.3862 57.1011C44.074 57.3766 43.8414 57.7308 43.7127 58.1268C43.5844 58.5165 43.5649 58.9337 43.6561 59.3337C43.7473 59.7336 43.9458 60.1011 44.2302 60.3967L46.1369 62.4133C46.1849 62.4634 46.2212 62.5235 46.2433 62.5893C46.2654 62.655 46.2728 62.7248 46.265 62.7937L45.9372 65.5176C45.8867 65.9216 45.9457 66.3317 46.1082 66.7051C46.2706 67.0784 46.5305 67.4011 46.8606 67.6395C47.1979 67.8873 47.5951 68.0409 48.0113 68.0846C48.4276 68.1283 48.848 68.0606 49.2295 67.8883L51.7772 66.7406C51.8485 66.7083 51.9259 66.6916 52.0042 66.6916C52.0825 66.6916 52.1599 66.7083 52.2312 66.7406L54.7807 67.8892C55.1623 68.0603 55.5824 68.1274 55.9984 68.0835C56.4143 68.0396 56.8112 67.8865 57.1487 67.6395C57.4788 67.4011 57.7386 67.0784 57.9011 66.7051C58.0636 66.3317 58.1226 65.9216 58.0721 65.5176L57.7443 62.7937C57.7365 62.7248 57.7438 62.655 57.766 62.5893C57.7881 62.5235 57.8244 62.4634 57.8723 62.4133L59.7791 60.3967C60.0632 60.1009 60.2614 59.7334 60.3524 59.3335C60.4434 58.9335 60.4238 58.5164 60.2957 58.1268C60.167 57.7308 59.9344 57.3766 59.6222 57.1011C59.31 56.8256 58.9296 56.639 58.5206 56.5606L55.7695 56.024C55.6961 56.0103 55.6265 55.9811 55.5654 55.9381C55.5042 55.8952 55.4531 55.8396 55.4154 55.7752L54.0426 53.3818C53.8355 53.0256 53.5387 52.73 53.1816 52.5245C52.8245 52.3191 52.4198 52.2109 52.0078 52.2109C51.5958 52.2109 51.1911 52.3191 50.834 52.5245C50.477 52.73 50.1801 53.0256 49.9731 53.3818H49.9658ZM52.46 54.2898L53.8328 56.6831C54 56.9735 54.2277 57.2245 54.5004 57.4191C54.7732 57.6137 55.0846 57.7473 55.4136 57.8108L58.1665 58.3474C58.2569 58.3623 58.3414 58.4017 58.4107 58.4615C58.4801 58.5212 58.5316 58.5989 58.5597 58.6861C58.587 58.7664 58.5913 58.8528 58.5721 58.9355C58.5528 59.0181 58.5108 59.0937 58.4507 59.1537L56.544 61.1694C56.3125 61.4129 56.1377 61.7046 56.0319 62.0235C55.9261 62.3424 55.892 62.6807 55.932 63.0144L56.2607 65.7382C56.2714 65.8228 56.2586 65.9086 56.2239 65.9864C56.1892 66.0642 56.1337 66.131 56.0637 66.1795C55.9866 66.2376 55.8952 66.2737 55.7992 66.2838C55.7032 66.2938 55.6063 66.2776 55.5189 66.2367L52.9703 65.0881C52.6652 64.9505 52.3343 64.8794 51.9996 64.8794C51.665 64.8794 51.3341 64.9505 51.029 65.0881L48.4813 66.2376C48.394 66.2787 48.2971 66.2952 48.2011 66.2853C48.1051 66.2753 48.0136 66.2394 47.9365 66.1813C47.8665 66.1328 47.811 66.066 47.7763 65.9882C47.7416 65.9104 47.7288 65.8246 47.7395 65.7401L48.0682 63.0162C48.1082 62.6828 48.0742 62.3446 47.9686 62.0259C47.863 61.7071 47.6883 61.4156 47.4571 61.1721L45.5504 59.1555C45.4903 59.0956 45.4483 59.02 45.429 58.9373C45.4098 58.8547 45.4141 58.7683 45.4414 58.6879C45.4695 58.6008 45.521 58.523 45.5904 58.4633C45.6597 58.4035 45.7442 58.3641 45.8346 58.3493L48.5884 57.8126C48.9172 57.7489 49.2284 57.6152 49.501 57.4207C49.7736 57.2261 50.0012 56.9752 50.1683 56.685L51.5411 54.2916C51.589 54.2127 51.6565 54.1474 51.737 54.1021C51.8174 54.0569 51.9082 54.0331 52.0006 54.0331C52.0929 54.0331 52.1837 54.0569 52.2641 54.1021C52.3446 54.1474 52.4121 54.2127 52.46 54.2916V54.2898Z" fill="white"/>
<path d="M55.3823 48.8226C58.2227 49.638 60.6728 51.452 62.2817 53.9307C63.8906 56.4093 64.5498 59.3858 64.1381 62.312C63.7264 65.2382 62.2715 67.9172 60.0411 69.8557C57.8108 71.7942 54.9552 72.8618 52.0002 72.8618C49.0452 72.8618 46.1896 71.7942 43.9593 69.8557C41.7289 67.9172 40.274 65.2382 39.8623 62.312C39.4506 59.3858 40.1098 56.4093 41.7187 53.9307C43.3276 51.452 45.7777 49.638 48.618 48.8226C48.8496 48.7563 49.0453 48.6007 49.1621 48.3901C49.2789 48.1794 49.3072 47.931 49.2409 47.6995C49.1746 47.468 49.019 47.2723 48.8083 47.1555C48.5977 47.0386 48.3493 47.0103 48.1178 47.0766C44.8565 48.0126 42.0432 50.0953 40.1958 52.9411C38.3485 55.787 37.5914 59.2044 38.064 62.5642C38.5366 65.9241 40.2071 69 42.7679 71.2258C45.3286 73.4516 48.6073 74.6773 52.0002 74.6773C55.3931 74.6773 58.6718 73.4516 61.2325 71.2258C63.7933 69 65.4638 65.9241 65.9364 62.5642C66.409 59.2044 65.6519 55.787 63.8045 52.9411C61.9572 50.0953 59.1439 48.0126 55.8826 47.0766C55.6511 47.0103 55.4027 47.0386 55.1921 47.1555C55.0878 47.2133 54.9959 47.2911 54.9217 47.3845C54.8474 47.4778 54.7923 47.5849 54.7595 47.6995C54.7266 47.8141 54.7167 47.9341 54.7302 48.0526C54.7437 48.1711 54.7805 48.2858 54.8383 48.3901C54.9551 48.6007 55.1508 48.7563 55.3823 48.8226Z" fill="white"/>
<path d="M51.9998 48.3506C52.5012 48.3506 52.9077 47.9441 52.9077 47.4426C52.9077 46.9412 52.5012 46.5347 51.9998 46.5347C51.4983 46.5347 51.0918 46.9412 51.0918 47.4426C51.0918 47.9441 51.4983 48.3506 51.9998 48.3506Z" fill="white"/>
</g>
<defs>
<clipPath id="clip0_285_7074">
<rect width="100" height="100" fill="white"/>
</clipPath>
</defs>
</svg>
