<svg width="35" height="35" viewBox="0 0 35 35" fill="none" xmlns="http://www.w3.org/2000/svg">
<path fill-rule="evenodd" clip-rule="evenodd" d="M9.29289 9.29305C9.68342 8.90253 10.3166 8.90253 10.7071 9.29305L25.9099 24.4958C26.3004 24.8864 26.3004 25.5195 25.9099 25.9101C25.5194 26.3006 24.8862 26.3006 24.4957 25.9101L9.29289 10.7073C8.90237 10.3167 8.90237 9.68358 9.29289 9.29305Z" fill="#003B59"/>
<path fill-rule="evenodd" clip-rule="evenodd" d="M9.29289 25.9099C8.90237 25.5194 8.90237 24.8862 9.29289 24.4957L24.4957 9.29289C24.8862 8.90237 25.5194 8.90237 25.9099 9.29289C26.3004 9.68342 26.3004 10.3166 25.9099 10.7071L10.7071 25.9099C10.3166 26.3004 9.68342 26.3004 9.29289 25.9099Z" fill="#003B59"/>
<rect x="1" y="1" width="33" height="33" rx="4" stroke="#003B59" stroke-width="2"/>
</svg>
