<svg width="30" height="30" viewBox="0 0 30 30" fill="none" xmlns="http://www.w3.org/2000/svg">
<g clip-path="url(#clip0_164_3556)">
<path d="M7.50968 28.3655C7.64128 28.3663 7.77174 28.341 7.89358 28.2913C8.01542 28.2415 8.12624 28.1682 8.21968 28.0755L23.4397 12.8555C23.6259 12.6681 23.7305 12.4147 23.7305 12.1505C23.7305 11.8863 23.6259 11.6329 23.4397 11.4455L17.8097 5.8655C17.6223 5.67925 17.3689 5.57471 17.1047 5.57471C16.8405 5.57471 16.587 5.67925 16.3997 5.8655L1.22968 21.0855C1.13457 21.1813 1.05984 21.2954 1.01 21.4208C0.960157 21.5463 0.936235 21.6805 0.939674 21.8155L1.07968 27.2555C1.07968 27.5207 1.18503 27.7751 1.37257 27.9626C1.56011 28.1501 1.81446 28.2555 2.07968 28.2555L7.51968 28.3955L7.50968 28.3655ZM21.3197 12.1455L7.10968 26.3555L3.04967 26.2555L2.94968 22.1955L17.1597 7.9855L21.3197 12.1455Z" fill="#79848A"/>
<path d="M22.7299 13.1458C22.8615 13.1466 22.9919 13.1213 23.1138 13.0716C23.2356 13.0218 23.3464 12.9485 23.4399 12.8558L28.3899 7.90579C28.5761 7.71843 28.6807 7.46498 28.6807 7.20079C28.6807 6.93661 28.5761 6.68316 28.3899 6.49579L22.8099 0.915793C22.6225 0.729542 22.3691 0.625 22.1049 0.625C21.8407 0.625 21.5872 0.729542 21.3999 0.915793L16.4499 5.91579C16.2636 6.10316 16.1591 6.35661 16.1591 6.62079C16.1591 6.88498 16.2636 7.13843 16.4499 7.32579L22.0299 12.8558C22.2161 13.0405 22.4675 13.1447 22.7299 13.1458ZM26.2699 7.14579L22.7299 10.6858L18.5699 6.52579L22.1099 3.03579L26.2699 7.14579Z" fill="#79848A"/>
<path fill-rule="evenodd" clip-rule="evenodd" d="M13.0605 28.625C13.0605 28.2108 13.3963 27.875 13.8105 27.875H28.3105C28.7248 27.875 29.0605 28.2108 29.0605 28.625C29.0605 29.0392 28.7248 29.375 28.3105 29.375H13.8105C13.3963 29.375 13.0605 29.0392 13.0605 28.625Z" fill="#79848A"/>
</g>
<defs>
<clipPath id="clip0_164_3556">
<rect width="30" height="30" fill="white"/>
</clipPath>
</defs>
</svg>
