<svg width="25" height="26" viewBox="0 0 25 26" fill="none" xmlns="http://www.w3.org/2000/svg">
<g clip-path="url(#clip0_265_5023)">
<path fill-rule="evenodd" clip-rule="evenodd" d="M12.5004 5.05547C7.44699 5.05547 3.35039 9.15206 3.35039 14.2055C3.35039 19.2589 7.44699 23.3555 12.5004 23.3555C17.5538 23.3555 21.6504 19.2589 21.6504 14.2055C21.6504 9.15206 17.5538 5.05547 12.5004 5.05547ZM1.65039 14.2055C1.65039 8.21318 6.5081 3.35547 12.5004 3.35547C18.4927 3.35547 23.3504 8.21318 23.3504 14.2055C23.3504 20.1978 18.4927 25.0555 12.5004 25.0555C6.5081 25.0555 1.65039 20.1978 1.65039 14.2055Z" fill="#DAE4EA"/>
<path fill-rule="evenodd" clip-rule="evenodd" d="M12.516 7.35547C12.9855 7.35547 13.366 7.73603 13.366 8.20547V14.3534L16.6171 17.6044C16.949 17.9364 16.949 18.4746 16.6171 18.8065C16.2851 19.1385 15.7469 19.1385 15.415 18.8065L11.666 15.0576V8.20547C11.666 7.73603 12.0466 7.35547 12.516 7.35547Z" fill="#DAE4EA"/>
<path fill-rule="evenodd" clip-rule="evenodd" d="M9.0957 1.5375C9.0957 1.06806 9.47626 0.6875 9.9457 0.6875H15.4086C15.878 0.6875 16.2586 1.06806 16.2586 1.5375C16.2586 2.00694 15.878 2.3875 15.4086 2.3875H9.9457C9.47626 2.3875 9.0957 2.00694 9.0957 1.5375Z" fill="#DAE4EA"/>
<path fill-rule="evenodd" clip-rule="evenodd" d="M6.108 3.70474C6.39165 4.07879 6.31837 4.61197 5.94431 4.89562L4.90015 5.68744C4.5261 5.97109 3.99292 5.89781 3.70927 5.52375C3.42561 5.1497 3.4989 4.61652 3.87295 4.33287L4.91711 3.54106C5.29117 3.2574 5.82434 3.33069 6.108 3.70474Z" fill="#DAE4EA"/>
<path fill-rule="evenodd" clip-rule="evenodd" d="M18.8842 3.70474C18.6005 4.07879 18.6738 4.61197 19.0479 4.89562L20.092 5.68744C20.4661 5.97109 20.9993 5.89781 21.2829 5.52375C21.5666 5.1497 21.4933 4.61652 21.1192 4.33287L20.0751 3.54106C19.701 3.2574 19.1678 3.33069 18.8842 3.70474Z" fill="#DAE4EA"/>
</g>
<defs>
<clipPath id="clip0_265_5023">
<rect width="25" height="25" fill="white" transform="translate(0 0.5)"/>
</clipPath>
</defs>
</svg>
