<svg width="45" height="45" viewBox="0 0 45 45" fill="none" xmlns="http://www.w3.org/2000/svg">
<path fill-rule="evenodd" clip-rule="evenodd" d="M23 9C23.5523 9 24 9.44772 24 10V36C24 36.5523 23.5523 37 23 37C22.4477 37 22 36.5523 22 36V10C22 9.44772 22.4477 9 23 9Z" fill="#5B676D"/>
<path fill-rule="evenodd" clip-rule="evenodd" d="M9 23C9 22.4477 9.44772 22 10 22L36 22C36.5523 22 37 22.4477 37 23C37 23.5523 36.5523 24 36 24L10 24C9.44772 24 9 23.5523 9 23Z" fill="#5B676D"/>
<rect x="1" y="1" width="43" height="43" rx="4" stroke="#5B676D" stroke-width="2"/>
</svg>
