<svg width="20" height="22" viewBox="0 0 20 22" fill="none" xmlns="http://www.w3.org/2000/svg">
<path d="M5.09429 21.2061L1.14618 4.12117C1.13243 4.06072 1.13454 3.99778 1.1523 3.93863C1.17006 3.87948 1.20284 3.82619 1.24738 3.78409C1.53367 3.50971 2.34458 2.9286 4.34571 2.46616C7.06603 1.83753 10.9877 3.11354 12.9854 2.65189C14.1126 2.38827 15.1751 1.89899 16.1108 1.21269C16.1225 1.20422 16.136 1.19883 16.1503 1.19698C16.1646 1.19513 16.1791 1.19689 16.1925 1.2021C16.206 1.20731 16.2181 1.21581 16.2275 1.22684C16.237 1.23787 16.2437 1.25109 16.247 1.26533L18.4348 10.7327C18.4424 10.7661 18.4403 10.801 18.4287 10.8332C18.4172 10.8653 18.3966 10.8933 18.3696 10.9137C18.0553 11.1504 16.9337 11.9234 15.2195 12.3195C13.1792 12.791 9.45968 12.1957 6.73936 12.8243C4.01904 13.4529 3.49853 14.3006 3.49853 14.3006" stroke="#DAE4EA" stroke-width="1.4" stroke-miterlimit="10" stroke-linecap="round"/>
</svg>
