<svg width="50" height="60" viewBox="0 0 50 60" fill="none" xmlns="http://www.w3.org/2000/svg">
<path d="M2 57.776C2 54.896 2.224 52.304 2.672 50C3.12 47.632 3.888 45.456 4.976 43.472C6.128 41.488 7.664 39.632 9.584 37.904C11.568 36.176 14.064 34.48 17.072 32.816C19.696 31.408 22 30.192 23.984 29.168C26.032 28.08 27.728 27.088 29.072 26.192C30.416 25.296 31.44 24.4 32.144 23.504C32.848 22.544 33.2 21.456 33.2 20.24C33.2 18.32 32.432 16.688 30.896 15.344C29.36 13.936 27.152 13.232 24.272 13.232C22.736 13.232 21.328 13.456 20.048 13.904C18.768 14.288 17.552 14.832 16.4 15.536C15.312 16.24 14.288 17.04 13.328 17.936C12.432 18.768 11.6 19.664 10.832 20.624L2.576 11.12C3.408 10.224 4.592 9.264 6.128 8.24C7.664 7.152 9.456 6.16 11.504 5.264C13.616 4.304 15.92 3.536 18.416 2.96C20.976 2.32 23.696 2 26.576 2C29.84 2 32.752 2.416 35.312 3.248C37.872 4.016 40.016 5.13599 41.744 6.60799C43.536 8.016 44.88 9.744 45.776 11.792C46.736 13.776 47.216 15.952 47.216 18.32C47.216 20.56 46.8 22.544 45.968 24.272C45.136 26 44.08 27.536 42.8 28.88C41.52 30.224 40.112 31.408 38.576 32.432C37.104 33.392 35.664 34.256 34.256 35.024C33.104 35.664 31.792 36.4 30.32 37.232C28.848 38.064 27.376 38.992 25.904 40.016C24.496 40.976 23.184 42 21.968 43.088C20.752 44.112 19.824 45.136 19.184 46.16H48.272V57.776H2Z" fill="#DAE4EA"/>
</svg>
