<svg width="30" height="35" viewBox="0 0 30 35" fill="none" xmlns="http://www.w3.org/2000/svg">
<path d="M0.5 35C0.5 33.1928 0.640387 31.5663 0.921162 30.1205C1.20194 28.6345 1.68326 27.2691 2.36515 26.0241C3.08714 24.7791 4.04979 23.6145 5.25311 22.5301C6.49654 21.4458 8.06086 20.3815 9.94606 19.3373C11.5906 18.4538 13.0346 17.6908 14.278 17.0482C15.5615 16.3655 16.6245 15.743 17.4668 15.1807C18.3091 14.6185 18.9509 14.0562 19.3921 13.494C19.8333 12.8916 20.0539 12.2088 20.0539 11.4458C20.0539 10.241 19.5726 9.21687 18.61 8.37349C17.6473 7.48996 16.2635 7.04819 14.4585 7.04819C13.4958 7.04819 12.6134 7.18875 11.8112 7.46988C11.009 7.71084 10.2469 8.05221 9.52489 8.49397C8.84301 8.93574 8.20124 9.43775 7.59958 10C7.03803 10.5221 6.5166 11.0843 6.03527 11.6867L0.860996 5.72289C1.38243 5.16064 2.12448 4.55823 3.08714 3.91566C4.04979 3.23293 5.17289 2.61044 6.45643 2.04819C7.78008 1.44578 9.22407 0.963855 10.7884 0.602409C12.3928 0.200803 14.0975 0 15.9025 0C17.9481 0 19.7732 0.261044 21.3776 0.783133C22.982 1.26506 24.3257 1.96787 25.4087 2.89156C26.5318 3.7751 27.3741 4.85944 27.9357 6.14458C28.5373 7.38956 28.8382 8.75502 28.8382 10.241C28.8382 11.6466 28.5775 12.8916 28.056 13.9759C27.5346 15.0602 26.8728 16.0241 26.0705 16.8675C25.2683 17.7108 24.3859 18.4538 23.4232 19.0964C22.5007 19.6988 21.5982 20.241 20.7158 20.7229C19.9938 21.1245 19.1715 21.5863 18.249 22.1084C17.3264 22.6305 16.4039 23.2128 15.4813 23.8554C14.5989 24.4578 13.7766 25.1004 13.0145 25.7831C12.2524 26.4257 11.6708 27.0683 11.2697 27.7108H29.5V35H0.5Z" fill="#DAE4EA"/>
</svg>
