<svg width="100" height="100" viewBox="0 0 100 100" fill="none" xmlns="http://www.w3.org/2000/svg">
<g clip-path="url(#clip0_285_7060)">
<circle cx="50" cy="50" r="50" fill="#003B59"/>
<path d="M76.4877 23.2516C73.2342 25.3054 69.4527 26.9019 65.2459 28.0165V26.6708C65.2459 26.2322 64.8907 25.8767 64.4518 25.8767H59.6871C59.2482 25.8767 58.893 26.2322 58.893 26.6708V29.2672C53.383 30.018 47.6546 29.9195 42.2243 28.9821V26.6708C42.2243 26.2322 41.8691 25.8767 41.4302 25.8767H36.6654C36.2265 25.8767 35.8713 26.2322 35.8713 26.6708V27.4586C32.4195 26.3925 29.2649 24.9918 26.5125 23.252C26.1418 23.0174 25.6517 23.1282 25.4167 23.4989C25.1825 23.8696 25.2934 24.3602 25.6641 24.5943C28.6597 26.4885 32.0986 28.0024 35.8713 29.1243V33.6589H31.1547C29.841 33.6589 28.7723 34.7275 28.7723 36.0412V68.4891C28.7723 69.8028 29.841 70.8715 31.1547 70.8715H69.9556C71.2693 70.8715 72.3379 69.8028 72.3379 68.4891V36.0412C72.3379 34.7275 71.2693 33.6589 69.9556 33.6589H65.2459V29.658C69.7721 28.4991 73.8402 26.801 77.336 24.5947C77.7067 24.3606 77.8177 23.87 77.5834 23.4993C77.3492 23.129 76.8599 23.0185 76.4877 23.2516ZM64.6545 64.9125L58.796 55.0492C58.6619 54.8231 58.4246 54.6781 58.1624 54.6623C57.9003 54.644 57.6467 54.7607 57.4854 54.9689L54.0701 59.3839L48.0809 50.7382C47.9265 50.516 47.6443 50.3857 47.4007 50.3966C47.1301 50.4059 46.8835 50.5521 46.7454 50.7843L38.3426 64.9125H34.7313V39.6144C43.0761 39.6148 66.5043 39.6144 66.3828 39.6144V64.9125H64.6545ZM40.1947 64.9051L47.4791 52.6584L53.3815 61.1796C53.5257 61.3878 53.7606 61.5146 54.0135 61.5212C54.264 61.5317 54.5082 61.4138 54.6626 61.2133L58.0275 56.8643L62.8069 64.9121L40.1947 64.9051ZM42.2243 35.2471H58.893V38.0261H42.2243V35.2471ZM60.4812 27.4649H63.6577C63.6577 30.5446 63.6577 33.2281 63.6577 38.0261H60.4812C60.4812 33.2271 60.4812 30.5446 60.4812 27.4649ZM51.4845 31.3633C53.9678 31.3633 56.4502 31.1929 58.893 30.8703V33.6589H42.2243V30.5892C45.2522 31.0959 48.3648 31.3633 51.4845 31.3633ZM37.4596 27.4649H40.636C40.636 30.5446 40.636 33.2281 40.636 38.0261H37.4596C37.4596 33.2271 37.4596 30.5446 37.4596 27.4649ZM69.9556 35.2471C70.4007 35.2471 70.7497 35.596 70.7497 36.0412V68.4891C70.7497 68.9269 70.3937 69.2832 69.9556 69.2832H31.1547C30.7165 69.2832 30.3605 68.9269 30.3605 68.4891V36.0412C30.3605 35.6034 30.7165 35.2471 31.1547 35.2471H35.8713V38.0261H33.9372C33.4983 38.0261 33.1431 38.3817 33.1431 38.8202V65.7066C33.1431 66.1452 33.4983 66.5007 33.9372 66.5007H67.1769C67.6159 66.5007 67.971 66.1452 67.971 65.7066V38.8202C67.971 38.3817 67.6159 38.0261 67.1769 38.0261H65.2459V35.2471H69.9556Z" fill="white"/>
<path d="M44.5696 45.8371C44.6303 44.0624 43.1804 42.5994 41.4172 42.5994C39.6366 42.5994 38.1744 44.0903 38.2678 45.8906C37.3962 46.2582 36.7812 47.1221 36.7812 48.1206C36.7812 49.4548 37.867 50.5406 39.2009 50.5406H43.7809C45.1148 50.5406 46.2005 49.4548 46.2005 48.1206C46.2005 47.0628 45.5173 46.162 44.5696 45.8371ZM43.7809 48.9523H39.2009C38.7425 48.9523 38.3695 48.5792 38.3695 48.1206C38.3695 47.6677 38.7386 47.2954 39.1923 47.2904C39.7349 47.2846 40.1054 46.7522 39.9376 46.2461C39.5814 45.1721 40.3989 44.1876 41.4172 44.1876C42.4307 44.1876 43.2601 45.1716 42.8953 46.2547C42.7405 46.7143 43.1276 47.3335 43.7918 47.2966C44.3052 47.2966 44.6123 47.7153 44.6123 48.1206C44.6123 48.5792 44.2393 48.9523 43.7809 48.9523ZM62.1224 45.0275C61.8137 43.9001 60.8771 43.0882 59.7355 42.9708C59.143 42.0069 58.0944 41.4082 56.9366 41.4082C54.8833 41.4082 53.3595 43.2564 53.6927 45.2279C52.7962 45.6324 52.1673 46.5362 52.1673 47.5715C52.1673 48.9895 53.3212 50.1435 54.7396 50.1435H61.7502C63.1686 50.1435 64.3225 48.9895 64.3225 47.5715C64.3225 46.278 63.3648 45.2042 62.1224 45.0275ZM61.7502 48.5553H54.7396C54.1967 48.5553 53.7555 48.114 53.7555 47.5715C53.7555 47.0418 54.1882 46.6021 54.7202 46.5916C55.298 46.5801 55.6741 45.9702 55.4159 45.4462C54.8384 44.2754 55.7135 42.9964 56.9366 42.9964C57.6307 42.9964 58.2496 43.4136 58.5124 44.0592C58.6443 44.3834 58.9622 44.5792 59.3236 44.5505C60.0687 44.4723 60.6487 45.085 60.6373 45.8138C60.6293 46.3036 61.0669 46.6945 61.5734 46.6075C62.1938 46.4928 62.7343 46.9689 62.7343 47.5715C62.7343 48.114 62.2931 48.5553 61.7502 48.5553Z" fill="white"/>
</g>
<defs>
<clipPath id="clip0_285_7060">
<rect width="100" height="100" fill="white"/>
</clipPath>
</defs>
</svg>
