<svg width="21" height="20" viewBox="0 0 21 20" fill="none" xmlns="http://www.w3.org/2000/svg">
<path d="M5.50645 18.9102C5.59419 18.9107 5.68116 18.8939 5.76239 18.8607C5.84361 18.8275 5.91749 18.7786 5.97978 18.7168L16.1265 8.57017C16.2506 8.44526 16.3203 8.27629 16.3203 8.10017C16.3203 7.92405 16.2506 7.75508 16.1265 7.63017L12.3731 3.91017C12.2482 3.786 12.0792 3.71631 11.9031 3.71631C11.727 3.71631 11.558 3.786 11.4331 3.91017L1.31978 14.0568C1.25638 14.1207 1.20656 14.1968 1.17333 14.2804C1.14011 14.364 1.12416 14.4535 1.12645 14.5435L1.21978 18.1702C1.21978 18.347 1.29002 18.5166 1.41505 18.6416C1.54007 18.7666 1.70964 18.8368 1.88645 18.8368L5.51312 18.9302L5.50645 18.9102ZM14.7131 8.09684L5.23978 17.5702L2.53312 17.5035L2.46645 14.7968L11.9398 5.3235L14.7131 8.09684Z" fill="#79848A"/>
<path d="M15.6539 8.7637C15.7416 8.76421 15.8286 8.74739 15.9098 8.71421C15.9911 8.68104 16.0649 8.63215 16.1272 8.57037L19.4272 5.27037C19.5514 5.14546 19.6211 4.97649 19.6211 4.80037C19.6211 4.62424 19.5514 4.45527 19.4272 4.33037L15.7072 0.610366C15.5823 0.486198 15.4134 0.416504 15.2372 0.416504C15.0611 0.416504 14.8921 0.486198 14.7672 0.610366L11.4672 3.9437C11.3431 4.06861 11.2734 4.23758 11.2734 4.4137C11.2734 4.58982 11.3431 4.75879 11.4672 4.8837L15.1872 8.57037C15.3114 8.69353 15.479 8.76296 15.6539 8.7637ZM18.0139 4.7637L15.6539 7.1237L12.8806 4.35037L15.2406 2.0237L18.0139 4.7637Z" fill="#79848A"/>
<path fill-rule="evenodd" clip-rule="evenodd" d="M9.20703 19.0835C9.20703 18.8074 9.43089 18.5835 9.70703 18.5835H19.3737C19.6498 18.5835 19.8737 18.8074 19.8737 19.0835C19.8737 19.3596 19.6498 19.5835 19.3737 19.5835H9.70703C9.43089 19.5835 9.20703 19.3596 9.20703 19.0835Z" fill="#79848A"/>
</svg>
