<svg width="46" height="45" viewBox="0 0 46 45" fill="none" xmlns="http://www.w3.org/2000/svg">
<path fill-rule="evenodd" clip-rule="evenodd" d="M23.5 9C24.0523 9 24.5 9.44772 24.5 10V36C24.5 36.5523 24.0523 37 23.5 37C22.9477 37 22.5 36.5523 22.5 36V10C22.5 9.44772 22.9477 9 23.5 9Z" fill="#AFBDC6"/>
<path fill-rule="evenodd" clip-rule="evenodd" d="M9.5 23C9.5 22.4477 9.94772 22 10.5 22L36.5 22C37.0523 22 37.5 22.4477 37.5 23C37.5 23.5523 37.0523 24 36.5 24L10.5 24C9.94772 24 9.5 23.5523 9.5 23Z" fill="#AFBDC6"/>
<rect x="1.5" y="1" width="43" height="43" rx="4" stroke="#AFBDC6" stroke-width="2"/>
</svg>
