<svg width="15" height="15" viewBox="0 0 15 15" fill="none" xmlns="http://www.w3.org/2000/svg">
<g clip-path="url(#clip0_409_6509)">
<path fill-rule="evenodd" clip-rule="evenodd" d="M2.74504 1.80702C2.2316 1.80702 1.80653 2.22825 1.80653 2.75892V4.83295C1.80653 5.36314 2.23176 5.78485 2.74504 5.78485H4.80122C5.3145 5.78485 5.73973 5.36314 5.73973 4.83295V2.75892C5.73973 2.22825 5.31466 1.80702 4.80122 1.80702H2.74504ZM0.599609 2.75892C0.599609 1.57154 1.55522 0.600098 2.74504 0.600098H4.80122C5.99104 0.600098 6.94666 1.57154 6.94666 2.75892V4.83295C6.94666 6.01951 5.99121 6.99177 4.80122 6.99177H2.74504C1.55506 6.99177 0.599609 6.01951 0.599609 4.83295V2.75892ZM10.198 1.80702C9.68455 1.80702 9.25949 2.22825 9.25949 2.75892V4.83295C9.25949 5.36314 9.68472 5.78485 10.198 5.78485H12.2548C12.7673 5.78485 13.1927 5.3633 13.1927 4.83295V2.75892C13.1927 2.22808 12.7675 1.80702 12.2548 1.80702H10.198ZM8.05256 2.75892C8.05256 1.57154 9.00817 0.600098 10.198 0.600098H12.2548C13.4442 0.600098 14.3996 1.5717 14.3996 2.75892V4.83295C14.3996 6.01935 13.4443 6.99177 12.2548 6.99177H10.198C9.00801 6.99177 8.05256 6.01951 8.05256 4.83295V2.75892ZM2.74504 9.21535C2.23176 9.21535 1.80653 9.63641 1.80653 10.1679V12.2413C1.80653 12.7719 2.2316 13.1932 2.74504 13.1932H4.80122C5.31466 13.1932 5.73973 12.7719 5.73973 12.2413V10.1679C5.73973 9.63641 5.3145 9.21535 4.80122 9.21535H2.74504ZM0.599609 10.1679C0.599609 8.98003 1.55506 8.00842 2.74504 8.00842H4.80122C5.99121 8.00842 6.94666 8.98003 6.94666 10.1679V12.2413C6.94666 13.4287 5.99104 14.4001 4.80122 14.4001H2.74504C1.55522 14.4001 0.599609 13.4287 0.599609 12.2413V10.1679ZM10.198 9.21535C9.68472 9.21535 9.25949 9.63641 9.25949 10.1679V12.2413C9.25949 12.7719 9.68455 13.1932 10.198 13.1932H12.2548C12.7675 13.1932 13.1927 12.7721 13.1927 12.2413V10.1679C13.1927 9.63624 12.7673 9.21535 12.2548 9.21535H10.198ZM8.05256 10.1679C8.05256 8.98003 9.00801 8.00842 10.198 8.00842H12.2548C13.4443 8.00842 14.3996 8.9802 14.3996 10.1679V12.2413C14.3996 13.4285 13.4442 14.4001 12.2548 14.4001H10.198C9.00817 14.4001 8.05256 13.4287 8.05256 12.2413V10.1679Z" fill="#AFBDC6"/>
</g>
<defs>
<clipPath id="clip0_409_6509">
<rect width="15" height="15" fill="white"/>
</clipPath>
</defs>
</svg>
