<svg width="277" height="107" viewBox="0 0 277 107" fill="none" xmlns="http://www.w3.org/2000/svg">
<path d="M30.5319 66.6121L30.5369 66.5932L30.5414 66.5742C30.8074 65.462 31.449 64.4588 32.5758 63.5598C33.6567 62.6975 34.7574 62.3032 35.9105 62.2908L35.9301 62.2906L35.9496 62.2899C36.7582 62.2602 37.8042 62.7029 39.0811 64.3035C40.263 65.785 40.5246 66.9384 40.3346 67.861C40.0638 68.9747 39.4358 69.954 38.3611 70.8115C37.2406 71.7053 36.1263 72.1085 34.9896 72.1251C34.0478 72.1054 32.9814 71.5942 31.7995 70.1127C30.5225 68.5121 30.3233 67.3939 30.5319 66.6121ZM28.2633 53.3946C28.729 54.0435 28.6044 54.9435 27.9801 55.4416L25.7377 57.2305C25.1134 57.7286 24.2082 57.6501 23.6789 57.0519L4.25283 35.0979C3.68396 34.455 3.76967 33.4667 4.44074 32.9313L9.01917 29.2787C9.69024 28.7433 10.6729 28.8793 11.1734 29.5768L28.2633 53.3946Z" stroke="#AC4C3E" stroke-width="3"/>
<path d="M69.5489 87.3043L69.2443 87.16L68.9072 87.16C68.5446 87.1599 68.2324 87.2791 68.0962 87.3331C67.912 87.4061 67.72 87.5001 67.534 87.5989C67.159 87.7981 66.702 88.0739 66.191 88.3997C65.1635 89.0548 63.8196 89.9751 62.2871 91.0491C60.7046 92.1582 58.8738 93.4649 56.9508 94.8373C55.1784 96.1023 53.3278 97.4232 51.5212 98.6966C48.5411 100.797 44.6721 98.4344 45.2535 94.6068C46.682 85.202 47.546 78.3225 47.9427 73.5179C48.1408 71.1176 48.2248 69.2072 48.2001 67.7449C48.1763 66.346 48.0542 65.1615 47.7172 64.3502C45.5388 59.1074 44.3346 53.3497 44.3346 47.3047C44.3346 22.8994 63.9701 3.13404 88.1683 3.13404L231.666 3.13403C255.864 3.13403 275.499 22.8994 275.499 47.3047C275.499 71.7099 255.864 91.4753 231.666 91.4753L88.1683 91.4753C81.5082 91.4753 75.1986 89.9796 69.5489 87.3043Z" stroke="#AC4C3E" stroke-width="3"/>
<path d="M85.648 36.9201C85.5087 36.9201 85.3567 36.9074 85.192 36.8821C85.0273 36.8694 84.8563 36.8441 84.679 36.8061C84.5017 36.7681 84.3243 36.7174 84.147 36.6541C83.9823 36.5908 83.8367 36.5148 83.71 36.4261L84.052 34.2601C84.1913 34.3361 84.3813 34.4248 84.622 34.5261C84.8753 34.6148 85.135 34.6591 85.401 34.6591C85.7683 34.6591 86.085 34.5578 86.351 34.3551C86.6297 34.1398 86.8703 33.7598 87.073 33.2151L82.114 23.2971H84.945L88.251 30.5741L91.329 23.2971H94.084L89.334 33.5571C89.0553 34.1651 88.783 34.6844 88.517 35.1151C88.251 35.5331 87.9723 35.8814 87.681 36.1601C87.4023 36.4261 87.0983 36.6224 86.769 36.7491C86.4397 36.8631 86.066 36.9201 85.648 36.9201ZM102.128 36.7871H99.6391V33.2341C99.3478 33.3354 99.0438 33.4114 98.7271 33.4621C98.4231 33.5128 98.0368 33.5381 97.5681 33.5381C96.9981 33.5381 96.5041 33.4494 96.0861 33.2721C95.6681 33.0821 95.3198 32.8351 95.0411 32.5311C94.7625 32.2144 94.5535 31.8471 94.4141 31.4291C94.2748 31.0111 94.2051 30.5614 94.2051 30.0801V26.8311H96.6561V29.7001C96.6561 30.3588 96.7891 30.8274 97.0551 31.1061C97.3211 31.3848 97.6948 31.5241 98.1761 31.5241C98.5308 31.5241 98.8221 31.4924 99.0501 31.4291C99.2908 31.3531 99.4871 31.2581 99.6391 31.1441V26.8311H102.128V36.7871ZM107.195 36.9771C106.714 36.9771 106.264 36.9011 105.846 36.7491C105.428 36.5844 105.067 36.3628 104.763 36.0841C104.459 35.7928 104.219 35.4571 104.041 35.0771C103.877 34.6971 103.794 34.2791 103.794 33.8231C103.794 33.3544 103.896 32.9238 104.098 32.5311C104.314 32.1258 104.605 31.7838 104.972 31.5051C105.352 31.2264 105.802 31.0111 106.321 30.8591C106.841 30.6944 107.411 30.6121 108.031 30.6121C108.475 30.6121 108.905 30.6501 109.323 30.7261C109.754 30.8021 110.134 30.9098 110.463 31.0491V30.4791C110.463 29.8204 110.273 29.3138 109.893 28.9591C109.526 28.6044 108.975 28.4271 108.24 28.4271C107.708 28.4271 107.189 28.5221 106.682 28.7121C106.176 28.9021 105.656 29.1808 105.124 29.5481L104.345 27.9331C105.625 27.0844 107.005 26.6601 108.487 26.6601C109.919 26.6601 111.027 27.0148 111.812 27.7241C112.61 28.4208 113.009 29.4341 113.009 30.7641V33.8611C113.009 34.1271 113.054 34.3171 113.142 34.4311C113.244 34.5451 113.402 34.6084 113.617 34.6211V36.7871C113.187 36.8758 112.813 36.9201 112.496 36.9201C112.015 36.9201 111.641 36.8124 111.375 36.5971C111.122 36.3818 110.964 36.0968 110.9 35.7421L110.843 35.1911C110.4 35.7738 109.862 36.2171 109.228 36.5211C108.595 36.8251 107.917 36.9771 107.195 36.9771ZM107.917 35.1151C108.348 35.1151 108.753 35.0391 109.133 34.8871C109.526 34.7351 109.83 34.5324 110.045 34.2791C110.324 34.0638 110.463 33.8231 110.463 33.5571V32.4171C110.159 32.3031 109.83 32.2144 109.475 32.1511C109.121 32.0751 108.779 32.0371 108.449 32.0371C107.791 32.0371 107.252 32.1891 106.834 32.4931C106.416 32.7844 106.207 33.1581 106.207 33.6141C106.207 34.0448 106.372 34.4058 106.701 34.6971C107.031 34.9758 107.436 35.1151 107.917 35.1151ZM114.799 31.8091C114.799 31.1124 114.919 30.4538 115.16 29.8331C115.4 29.2124 115.749 28.6678 116.205 28.1991C116.661 27.7304 117.212 27.3568 117.858 27.0781C118.504 26.7994 119.232 26.6601 120.043 26.6601C121.132 26.6601 122.057 26.8944 122.817 27.3631C123.589 27.8318 124.166 28.4461 124.546 29.2061L122.057 29.9661C121.841 29.5988 121.556 29.3201 121.202 29.1301C120.847 28.9274 120.454 28.8261 120.024 28.8261C119.656 28.8261 119.314 28.9021 118.998 29.0541C118.681 29.1934 118.402 29.3961 118.162 29.6621C117.934 29.9154 117.75 30.2258 117.611 30.5931C117.484 30.9604 117.421 31.3658 117.421 31.8091C117.421 32.2524 117.49 32.6578 117.63 33.0251C117.769 33.3924 117.953 33.7091 118.181 33.9751C118.421 34.2411 118.7 34.4501 119.017 34.6021C119.333 34.7414 119.669 34.8111 120.024 34.8111C120.48 34.8111 120.898 34.6971 121.278 34.4691C121.67 34.2411 121.943 33.9624 122.095 33.6331L124.584 34.3931C124.242 35.1531 123.678 35.7738 122.893 36.2551C122.107 36.7364 121.164 36.9771 120.062 36.9771C119.251 36.9771 118.523 36.8378 117.877 36.5591C117.231 36.2804 116.68 35.9068 116.224 35.4381C115.768 34.9568 115.413 34.4058 115.16 33.7851C114.919 33.1518 114.799 32.4931 114.799 31.8091ZM130.957 36.7871H128.43V29.0351H125.314V26.8311H134.054V29.0351H130.957V36.7871ZM138.104 33.1581L142.816 26.8311H144.697V36.7871H142.17V30.6311L137.515 36.7871H135.577V26.8311H138.104V33.1581ZM151.678 36.9771C150.88 36.9771 150.158 36.8441 149.512 36.5781C148.866 36.2994 148.315 35.9258 147.859 35.4571C147.403 34.9884 147.049 34.4438 146.795 33.8231C146.555 33.2024 146.434 32.5501 146.434 31.8661C146.434 31.1568 146.555 30.4918 146.795 29.8711C147.036 29.2378 147.384 28.6868 147.84 28.2181C148.296 27.7368 148.847 27.3568 149.493 27.0781C150.152 26.7994 150.887 26.6601 151.697 26.6601C152.508 26.6601 153.23 26.7994 153.863 27.0781C154.509 27.3568 155.054 27.7304 155.497 28.1991C155.953 28.6678 156.295 29.2124 156.523 29.8331C156.764 30.4538 156.884 31.0998 156.884 31.7711C156.884 31.9358 156.878 32.0941 156.865 32.2461C156.865 32.3981 156.853 32.5248 156.827 32.6261H149.132C149.17 33.0188 149.265 33.3671 149.417 33.6711C149.569 33.9751 149.766 34.2348 150.006 34.4501C150.247 34.6654 150.519 34.8301 150.823 34.9441C151.127 35.0581 151.444 35.1151 151.773 35.1151C152.28 35.1151 152.755 34.9948 153.198 34.7541C153.654 34.5008 153.965 34.1714 154.129 33.7661L156.314 34.3741C155.947 35.1341 155.358 35.7611 154.547 36.2551C153.749 36.7364 152.793 36.9771 151.678 36.9771ZM154.262 30.9731C154.199 30.2258 153.92 29.6304 153.426 29.1871C152.945 28.7311 152.356 28.5031 151.659 28.5031C151.317 28.5031 150.994 28.5664 150.69 28.6931C150.399 28.8071 150.139 28.9718 149.911 29.1871C149.683 29.4024 149.493 29.6621 149.341 29.9661C149.202 30.2701 149.12 30.6058 149.094 30.9731H154.262ZM168.947 26.8311C169.314 26.8311 169.65 26.9008 169.954 27.0401C170.258 27.1668 170.517 27.3441 170.733 27.5721C170.961 27.8001 171.132 28.0661 171.246 28.3701C171.372 28.6741 171.436 28.9971 171.436 29.3391C171.436 29.7698 171.322 30.2068 171.094 30.6501C170.866 31.0808 170.492 31.4038 169.973 31.6191C170.555 31.7838 171.011 32.0688 171.341 32.4741C171.683 32.8668 171.854 33.4051 171.854 34.0891C171.854 35.0011 171.537 35.6788 170.904 36.1221C170.27 36.5654 169.396 36.7871 168.282 36.7871H163.057V26.8311H168.947ZM167.75 30.9921C168.104 30.9921 168.389 30.8908 168.605 30.6881C168.82 30.4854 168.928 30.1941 168.928 29.8141C168.928 29.4974 168.833 29.2314 168.643 29.0161C168.465 28.7881 168.193 28.6741 167.826 28.6741H165.584V30.9921H167.75ZM168.092 34.9441C168.459 34.9441 168.75 34.8238 168.966 34.5831C169.194 34.3424 169.308 34.0511 169.308 33.7091C169.308 33.3544 169.2 33.0631 168.985 32.8351C168.769 32.5944 168.478 32.4741 168.111 32.4741H165.584V34.9441H168.092ZM184.277 26.8311H187.013L183.137 31.6571L187.317 36.7871H184.429L181.351 32.9491H180.686V36.7871H178.178V26.8311H180.686V30.7831H181.256L184.277 26.8311ZM194.33 26.8311C194.697 26.8311 195.033 26.9008 195.337 27.0401C195.641 27.1668 195.9 27.3441 196.116 27.5721C196.344 27.8001 196.515 28.0661 196.629 28.3701C196.755 28.6741 196.819 28.9971 196.819 29.3391C196.819 29.7698 196.705 30.2068 196.477 30.6501C196.249 31.0808 195.875 31.4038 195.356 31.6191C195.938 31.7838 196.394 32.0688 196.724 32.4741C197.066 32.8668 197.237 33.4051 197.237 34.0891C197.237 35.0011 196.92 35.6788 196.287 36.1221C195.653 36.5654 194.779 36.7871 193.665 36.7871H188.44V26.8311H194.33ZM193.133 30.9921C193.487 30.9921 193.772 30.8908 193.988 30.6881C194.203 30.4854 194.311 30.1941 194.311 29.8141C194.311 29.4974 194.216 29.2314 194.026 29.0161C193.848 28.7881 193.576 28.6741 193.209 28.6741H190.967V30.9921H193.133ZM193.475 34.9441C193.842 34.9441 194.133 34.8238 194.349 34.5831C194.577 34.3424 194.691 34.0511 194.691 33.7091C194.691 33.3544 194.583 33.0631 194.368 32.8351C194.152 32.5944 193.861 32.4741 193.494 32.4741H190.967V34.9441H193.475ZM203.576 36.9771C202.778 36.9771 202.056 36.8441 201.41 36.5781C200.764 36.2994 200.213 35.9258 199.757 35.4571C199.301 34.9884 198.946 34.4438 198.693 33.8231C198.452 33.2024 198.332 32.5501 198.332 31.8661C198.332 31.1568 198.452 30.4918 198.693 29.8711C198.933 29.2378 199.282 28.6868 199.738 28.2181C200.194 27.7368 200.745 27.3568 201.391 27.0781C202.049 26.7994 202.784 26.6601 203.595 26.6601C204.405 26.6601 205.127 26.7994 205.761 27.0781C206.407 27.3568 206.951 27.7304 207.395 28.1991C207.851 28.6678 208.193 29.2124 208.421 29.8331C208.661 30.4538 208.782 31.0998 208.782 31.7711C208.782 31.9358 208.775 32.0941 208.763 32.2461C208.763 32.3981 208.75 32.5248 208.725 32.6261H201.03C201.068 33.0188 201.163 33.3671 201.315 33.6711C201.467 33.9751 201.663 34.2348 201.904 34.4501C202.144 34.6654 202.417 34.8301 202.721 34.9441C203.025 35.0581 203.341 35.1151 203.671 35.1151C204.177 35.1151 204.652 34.9948 205.096 34.7541C205.552 34.5008 205.862 34.1714 206.027 33.7661L208.212 34.3741C207.844 35.1341 207.255 35.7611 206.445 36.2551C205.647 36.7364 204.69 36.9771 203.576 36.9771ZM206.16 30.9731C206.096 30.2258 205.818 29.6304 205.324 29.1871C204.842 28.7311 204.253 28.5031 203.557 28.5031C203.215 28.5031 202.892 28.5664 202.588 28.6931C202.296 28.8071 202.037 28.9718 201.809 29.1871C201.581 29.4024 201.391 29.6621 201.239 29.9661C201.099 30.2701 201.017 30.6058 200.992 30.9731H206.16ZM209.706 31.8091C209.706 31.1124 209.826 30.4538 210.067 29.8331C210.307 29.2124 210.656 28.6678 211.112 28.1991C211.568 27.7304 212.119 27.3568 212.765 27.0781C213.411 26.7994 214.139 26.6601 214.95 26.6601C216.039 26.6601 216.964 26.8944 217.724 27.3631C218.496 27.8318 219.073 28.4461 219.453 29.2061L216.964 29.9661C216.748 29.5988 216.463 29.3201 216.109 29.1301C215.754 28.9274 215.361 28.8261 214.931 28.8261C214.563 28.8261 214.221 28.9021 213.905 29.0541C213.588 29.1934 213.309 29.3961 213.069 29.6621C212.841 29.9154 212.657 30.2258 212.518 30.5931C212.391 30.9604 212.328 31.3658 212.328 31.8091C212.328 32.2524 212.397 32.6578 212.537 33.0251C212.676 33.3924 212.86 33.7091 213.088 33.9751C213.328 34.2411 213.607 34.4501 213.924 34.6021C214.24 34.7414 214.576 34.8111 214.931 34.8111C215.387 34.8111 215.805 34.6971 216.185 34.4691C216.577 34.2411 216.85 33.9624 217.002 33.6331L219.491 34.3931C219.149 35.1531 218.585 35.7738 217.8 36.2551C217.014 36.7364 216.071 36.9771 214.969 36.9771C214.158 36.9771 213.43 36.8378 212.784 36.5591C212.138 36.2804 211.587 35.9068 211.131 35.4381C210.675 34.9568 210.32 34.4058 210.067 33.7851C209.826 33.1518 209.706 32.4931 209.706 31.8091ZM225.864 36.7871H223.337V29.0351H220.221V26.8311H228.961V29.0351H225.864V36.7871ZM234.581 36.9771C233.783 36.9771 233.061 36.8441 232.415 36.5781C231.769 36.2994 231.218 35.9258 230.762 35.4571C230.306 34.9884 229.951 34.4438 229.698 33.8231C229.457 33.2024 229.337 32.5501 229.337 31.8661C229.337 31.1568 229.457 30.4918 229.698 29.8711C229.938 29.2378 230.287 28.6868 230.743 28.2181C231.199 27.7368 231.75 27.3568 232.396 27.0781C233.054 26.7994 233.789 26.6601 234.6 26.6601C235.41 26.6601 236.132 26.7994 236.766 27.0781C237.412 27.3568 237.956 27.7304 238.4 28.1991C238.856 28.6678 239.198 29.2124 239.426 29.8331C239.666 30.4538 239.787 31.0998 239.787 31.7711C239.787 31.9358 239.78 32.0941 239.768 32.2461C239.768 32.3981 239.755 32.5248 239.73 32.6261H232.035C232.073 33.0188 232.168 33.3671 232.32 33.6711C232.472 33.9751 232.668 34.2348 232.909 34.4501C233.149 34.6654 233.422 34.8301 233.726 34.9441C234.03 35.0581 234.346 35.1151 234.676 35.1151C235.182 35.1151 235.657 34.9948 236.101 34.7541C236.557 34.5008 236.867 34.1714 237.032 33.7661L239.217 34.3741C238.849 35.1341 238.26 35.7611 237.45 36.2551C236.652 36.7364 235.695 36.9771 234.581 36.9771ZM237.165 30.9731C237.101 30.2258 236.823 29.6304 236.329 29.1871C235.847 28.7311 235.258 28.5031 234.562 28.5031C234.22 28.5031 233.897 28.5664 233.593 28.6931C233.301 28.8071 233.042 28.9718 232.814 29.1871C232.586 29.4024 232.396 29.6621 232.244 29.9661C232.104 30.2701 232.022 30.6058 231.997 30.9731H237.165Z" fill="#F9A135"/>
<path d="M90.24 49.344C88.896 49.6427 87.8293 50.2187 87.04 51.072C86.272 51.9253 85.7493 53.152 85.472 54.752C86.1333 53.9413 86.9333 53.3227 87.872 52.896C88.8107 52.448 89.8667 52.224 91.04 52.224C92.064 52.224 93.024 52.4267 93.92 52.832C94.816 53.2373 95.5947 53.792 96.256 54.496C96.9387 55.2 97.472 56.032 97.856 56.992C98.2613 57.952 98.464 58.9867 98.464 60.096C98.464 61.248 98.2613 62.3253 97.856 63.328C97.472 64.3307 96.9067 65.2053 96.16 65.952C95.4347 66.6773 94.5387 67.2533 93.472 67.68C92.4053 68.1067 91.2 68.32 89.856 68.32C87.0827 68.32 84.9813 67.456 83.552 65.728C82.1227 63.9787 81.408 61.4293 81.408 58.08C81.408 56.1813 81.5893 54.528 81.952 53.12C82.3147 51.6907 82.8587 50.4853 83.584 49.504C84.3307 48.5013 85.248 47.6907 86.336 47.072C87.4453 46.4533 88.7253 45.984 90.176 45.664L96.384 44.288L96.672 47.904L90.24 49.344ZM85.792 60C85.792 60.704 85.8987 61.344 86.112 61.92C86.3253 62.496 86.6133 62.9973 86.976 63.424C87.3387 63.8293 87.776 64.1493 88.288 64.384C88.8 64.6187 89.3653 64.736 89.984 64.736C91.2 64.736 92.1813 64.32 92.928 63.488C93.6747 62.6347 94.048 61.5147 94.048 60.128C94.048 58.848 93.664 57.8133 92.896 57.024C92.128 56.2133 91.1147 55.808 89.856 55.808C88.6613 55.808 87.68 56.192 86.912 56.96C86.1653 57.728 85.792 58.7413 85.792 60ZM109.197 68.32C107.853 68.32 106.637 68.096 105.549 67.648C104.461 67.1787 103.533 66.5493 102.765 65.76C101.997 64.9707 101.399 64.0533 100.973 63.008C100.567 61.9627 100.365 60.864 100.365 59.712C100.365 58.5173 100.567 57.3973 100.973 56.352C101.378 55.2853 101.965 54.3573 102.733 53.568C103.501 52.7573 104.429 52.1173 105.517 51.648C106.626 51.1787 107.863 50.944 109.229 50.944C110.594 50.944 111.81 51.1787 112.877 51.648C113.965 52.1173 114.882 52.7467 115.629 53.536C116.397 54.3253 116.973 55.2427 117.357 56.288C117.762 57.3333 117.965 58.4213 117.965 59.552C117.965 59.8293 117.954 60.096 117.933 60.352C117.933 60.608 117.911 60.8213 117.869 60.992H104.909C104.973 61.6533 105.133 62.24 105.389 62.752C105.645 63.264 105.975 63.7013 106.381 64.064C106.786 64.4267 107.245 64.704 107.757 64.896C108.269 65.088 108.802 65.184 109.357 65.184C110.21 65.184 111.01 64.9813 111.757 64.576C112.525 64.1493 113.047 63.5947 113.325 62.912L117.005 63.936C116.386 65.216 115.394 66.272 114.029 67.104C112.685 67.9147 111.074 68.32 109.197 68.32ZM113.549 58.208C113.442 56.9493 112.973 55.9467 112.141 55.2C111.33 54.432 110.338 54.048 109.165 54.048C108.589 54.048 108.045 54.1547 107.533 54.368C107.042 54.56 106.605 54.8373 106.221 55.2C105.837 55.5627 105.517 56 105.261 56.512C105.026 57.024 104.887 57.5893 104.845 58.208H113.549ZM119.521 59.616C119.521 58.4427 119.724 57.3333 120.129 56.288C120.534 55.2427 121.121 54.3253 121.889 53.536C122.657 52.7467 123.585 52.1173 124.673 51.648C125.761 51.1787 126.988 50.944 128.353 50.944C130.188 50.944 131.745 51.3387 133.025 52.128C134.326 52.9173 135.297 53.952 135.937 55.232L131.745 56.512C131.382 55.8933 130.902 55.424 130.305 55.104C129.708 54.7627 129.046 54.592 128.321 54.592C127.702 54.592 127.126 54.72 126.593 54.976C126.06 55.2107 125.59 55.552 125.185 56C124.801 56.4267 124.492 56.9493 124.257 57.568C124.044 58.1867 123.937 58.8693 123.937 59.616C123.937 60.3627 124.054 61.0453 124.289 61.664C124.524 62.2827 124.833 62.816 125.217 63.264C125.622 63.712 126.092 64.064 126.625 64.32C127.158 64.5547 127.724 64.672 128.321 64.672C129.089 64.672 129.793 64.48 130.433 64.096C131.094 63.712 131.553 63.2427 131.809 62.688L136.001 63.968C135.425 65.248 134.476 66.2933 133.153 67.104C131.83 67.9147 130.241 68.32 128.385 68.32C127.02 68.32 125.793 68.0853 124.705 67.616C123.617 67.1467 122.689 66.5173 121.921 65.728C121.153 64.9173 120.556 63.9893 120.129 62.944C119.724 61.8773 119.521 60.768 119.521 59.616ZM153.392 68H149.136V54.944H142.96V68H138.704V51.232H153.392V68ZM155.631 64.352C156.25 64.3093 156.751 64.1813 157.135 63.968C157.54 63.7547 157.871 63.36 158.127 62.784C158.404 62.208 158.628 61.4187 158.799 60.416C158.991 59.392 159.183 58.0587 159.375 56.416L159.951 51.232H171.695V68H167.439V54.816H163.695L163.375 57.344C163.119 59.456 162.81 61.2053 162.447 62.592C162.084 63.9573 161.615 65.0453 161.039 65.856C160.484 66.6667 159.791 67.2427 158.959 67.584C158.127 67.904 157.103 68.0853 155.887 68.128L155.631 64.352ZM180.247 68.32C179.436 68.32 178.679 68.192 177.975 67.936C177.271 67.6587 176.663 67.2853 176.151 66.816C175.639 66.3253 175.233 65.76 174.935 65.12C174.657 64.48 174.519 63.776 174.519 63.008C174.519 62.2187 174.689 61.4933 175.031 60.832C175.393 60.1493 175.884 59.5733 176.503 59.104C177.143 58.6347 177.9 58.272 178.775 58.016C179.649 57.7387 180.609 57.6 181.655 57.6C182.401 57.6 183.127 57.664 183.831 57.792C184.556 57.92 185.196 58.1013 185.751 58.336V57.376C185.751 56.2667 185.431 55.4133 184.791 54.816C184.172 54.2187 183.244 53.92 182.007 53.92C181.111 53.92 180.236 54.08 179.383 54.4C178.529 54.72 177.655 55.1893 176.759 55.808L175.447 53.088C177.601 51.6587 179.927 50.944 182.423 50.944C184.833 50.944 186.7 51.5413 188.023 52.736C189.367 53.9093 190.039 55.616 190.039 57.856V63.072C190.039 63.52 190.113 63.84 190.263 64.032C190.433 64.224 190.7 64.3307 191.063 64.352V68C190.337 68.1493 189.708 68.224 189.175 68.224C188.364 68.224 187.735 68.0427 187.287 67.68C186.86 67.3173 186.593 66.8373 186.487 66.24L186.391 65.312C185.644 66.2933 184.737 67.04 183.671 67.552C182.604 68.064 181.463 68.32 180.247 68.32ZM181.463 65.184C182.188 65.184 182.871 65.056 183.511 64.8C184.172 64.544 184.684 64.2027 185.047 63.776C185.516 63.4133 185.751 63.008 185.751 62.56V60.64C185.239 60.448 184.684 60.2987 184.087 60.192C183.489 60.064 182.913 60 182.359 60C181.249 60 180.343 60.256 179.639 60.768C178.935 61.2587 178.583 61.888 178.583 62.656C178.583 63.3813 178.86 63.9893 179.415 64.48C179.969 64.9493 180.652 65.184 181.463 65.184ZM201.736 68H197.48V54.944H192.232V51.232H206.952V54.944H201.736V68ZM213.772 57.568H220.428V51.232H224.684V68H220.428V61.216H213.772V68H209.516V51.232H213.772V57.568ZM236.352 68.32C234.987 68.32 233.76 68.0853 232.672 67.616C231.584 67.1467 230.656 66.5173 229.888 65.728C229.142 64.9173 228.566 63.9893 228.16 62.944C227.755 61.8987 227.552 60.8 227.552 59.648C227.552 58.4747 227.755 57.3653 228.16 56.32C228.566 55.2747 229.142 54.3573 229.888 53.568C230.656 52.7573 231.584 52.1173 232.672 51.648C233.76 51.1787 234.987 50.944 236.352 50.944C237.718 50.944 238.934 51.1787 240 51.648C241.088 52.1173 242.006 52.7573 242.752 53.568C243.52 54.3573 244.107 55.2747 244.512 56.32C244.918 57.3653 245.12 58.4747 245.12 59.648C245.12 60.8 244.918 61.8987 244.512 62.944C244.107 63.9893 243.531 64.9173 242.784 65.728C242.038 66.5173 241.12 67.1467 240.032 67.616C238.944 68.0853 237.718 68.32 236.352 68.32ZM231.968 59.648C231.968 60.3947 232.075 61.0773 232.288 61.696C232.523 62.2933 232.832 62.816 233.216 63.264C233.622 63.712 234.091 64.064 234.624 64.32C235.158 64.5547 235.734 64.672 236.352 64.672C236.971 64.672 237.547 64.5547 238.08 64.32C238.614 64.064 239.072 63.712 239.456 63.264C239.862 62.816 240.171 62.2827 240.384 61.664C240.619 61.0453 240.736 60.3627 240.736 59.616C240.736 58.8907 240.619 58.2187 240.384 57.6C240.171 56.9813 239.862 56.448 239.456 56C239.072 55.552 238.614 55.2107 238.08 54.976C237.547 54.72 236.971 54.592 236.352 54.592C235.734 54.592 235.158 54.72 234.624 54.976C234.091 55.232 233.622 55.584 233.216 56.032C232.832 56.48 232.523 57.0133 232.288 57.632C232.075 58.2507 231.968 58.9227 231.968 59.648Z" fill="#F9A135"/>
<path d="M90.24 49.344C88.896 49.6427 87.8293 50.2187 87.04 51.072C86.272 51.9253 85.7493 53.152 85.472 54.752C86.1333 53.9413 86.9333 53.3227 87.872 52.896C88.8107 52.448 89.8667 52.224 91.04 52.224C92.064 52.224 93.024 52.4267 93.92 52.832C94.816 53.2373 95.5947 53.792 96.256 54.496C96.9387 55.2 97.472 56.032 97.856 56.992C98.2613 57.952 98.464 58.9867 98.464 60.096C98.464 61.248 98.2613 62.3253 97.856 63.328C97.472 64.3307 96.9067 65.2053 96.16 65.952C95.4347 66.6773 94.5387 67.2533 93.472 67.68C92.4053 68.1067 91.2 68.32 89.856 68.32C87.0827 68.32 84.9813 67.456 83.552 65.728C82.1227 63.9787 81.408 61.4293 81.408 58.08C81.408 56.1813 81.5893 54.528 81.952 53.12C82.3147 51.6907 82.8587 50.4853 83.584 49.504C84.3307 48.5013 85.248 47.6907 86.336 47.072C87.4453 46.4533 88.7253 45.984 90.176 45.664L96.384 44.288L96.672 47.904L90.24 49.344ZM85.792 60C85.792 60.704 85.8987 61.344 86.112 61.92C86.3253 62.496 86.6133 62.9973 86.976 63.424C87.3387 63.8293 87.776 64.1493 88.288 64.384C88.8 64.6187 89.3653 64.736 89.984 64.736C91.2 64.736 92.1813 64.32 92.928 63.488C93.6747 62.6347 94.048 61.5147 94.048 60.128C94.048 58.848 93.664 57.8133 92.896 57.024C92.128 56.2133 91.1147 55.808 89.856 55.808C88.6613 55.808 87.68 56.192 86.912 56.96C86.1653 57.728 85.792 58.7413 85.792 60ZM109.197 68.32C107.853 68.32 106.637 68.096 105.549 67.648C104.461 67.1787 103.533 66.5493 102.765 65.76C101.997 64.9707 101.399 64.0533 100.973 63.008C100.567 61.9627 100.365 60.864 100.365 59.712C100.365 58.5173 100.567 57.3973 100.973 56.352C101.378 55.2853 101.965 54.3573 102.733 53.568C103.501 52.7573 104.429 52.1173 105.517 51.648C106.626 51.1787 107.863 50.944 109.229 50.944C110.594 50.944 111.81 51.1787 112.877 51.648C113.965 52.1173 114.882 52.7467 115.629 53.536C116.397 54.3253 116.973 55.2427 117.357 56.288C117.762 57.3333 117.965 58.4213 117.965 59.552C117.965 59.8293 117.954 60.096 117.933 60.352C117.933 60.608 117.911 60.8213 117.869 60.992H104.909C104.973 61.6533 105.133 62.24 105.389 62.752C105.645 63.264 105.975 63.7013 106.381 64.064C106.786 64.4267 107.245 64.704 107.757 64.896C108.269 65.088 108.802 65.184 109.357 65.184C110.21 65.184 111.01 64.9813 111.757 64.576C112.525 64.1493 113.047 63.5947 113.325 62.912L117.005 63.936C116.386 65.216 115.394 66.272 114.029 67.104C112.685 67.9147 111.074 68.32 109.197 68.32ZM113.549 58.208C113.442 56.9493 112.973 55.9467 112.141 55.2C111.33 54.432 110.338 54.048 109.165 54.048C108.589 54.048 108.045 54.1547 107.533 54.368C107.042 54.56 106.605 54.8373 106.221 55.2C105.837 55.5627 105.517 56 105.261 56.512C105.026 57.024 104.887 57.5893 104.845 58.208H113.549ZM119.521 59.616C119.521 58.4427 119.724 57.3333 120.129 56.288C120.534 55.2427 121.121 54.3253 121.889 53.536C122.657 52.7467 123.585 52.1173 124.673 51.648C125.761 51.1787 126.988 50.944 128.353 50.944C130.188 50.944 131.745 51.3387 133.025 52.128C134.326 52.9173 135.297 53.952 135.937 55.232L131.745 56.512C131.382 55.8933 130.902 55.424 130.305 55.104C129.708 54.7627 129.046 54.592 128.321 54.592C127.702 54.592 127.126 54.72 126.593 54.976C126.06 55.2107 125.59 55.552 125.185 56C124.801 56.4267 124.492 56.9493 124.257 57.568C124.044 58.1867 123.937 58.8693 123.937 59.616C123.937 60.3627 124.054 61.0453 124.289 61.664C124.524 62.2827 124.833 62.816 125.217 63.264C125.622 63.712 126.092 64.064 126.625 64.32C127.158 64.5547 127.724 64.672 128.321 64.672C129.089 64.672 129.793 64.48 130.433 64.096C131.094 63.712 131.553 63.2427 131.809 62.688L136.001 63.968C135.425 65.248 134.476 66.2933 133.153 67.104C131.83 67.9147 130.241 68.32 128.385 68.32C127.02 68.32 125.793 68.0853 124.705 67.616C123.617 67.1467 122.689 66.5173 121.921 65.728C121.153 64.9173 120.556 63.9893 120.129 62.944C119.724 61.8773 119.521 60.768 119.521 59.616ZM153.392 68H149.136V54.944H142.96V68H138.704V51.232H153.392V68ZM155.631 64.352C156.25 64.3093 156.751 64.1813 157.135 63.968C157.54 63.7547 157.871 63.36 158.127 62.784C158.404 62.208 158.628 61.4187 158.799 60.416C158.991 59.392 159.183 58.0587 159.375 56.416L159.951 51.232H171.695V68H167.439V54.816H163.695L163.375 57.344C163.119 59.456 162.81 61.2053 162.447 62.592C162.084 63.9573 161.615 65.0453 161.039 65.856C160.484 66.6667 159.791 67.2427 158.959 67.584C158.127 67.904 157.103 68.0853 155.887 68.128L155.631 64.352ZM180.247 68.32C179.436 68.32 178.679 68.192 177.975 67.936C177.271 67.6587 176.663 67.2853 176.151 66.816C175.639 66.3253 175.233 65.76 174.935 65.12C174.657 64.48 174.519 63.776 174.519 63.008C174.519 62.2187 174.689 61.4933 175.031 60.832C175.393 60.1493 175.884 59.5733 176.503 59.104C177.143 58.6347 177.9 58.272 178.775 58.016C179.649 57.7387 180.609 57.6 181.655 57.6C182.401 57.6 183.127 57.664 183.831 57.792C184.556 57.92 185.196 58.1013 185.751 58.336V57.376C185.751 56.2667 185.431 55.4133 184.791 54.816C184.172 54.2187 183.244 53.92 182.007 53.92C181.111 53.92 180.236 54.08 179.383 54.4C178.529 54.72 177.655 55.1893 176.759 55.808L175.447 53.088C177.601 51.6587 179.927 50.944 182.423 50.944C184.833 50.944 186.7 51.5413 188.023 52.736C189.367 53.9093 190.039 55.616 190.039 57.856V63.072C190.039 63.52 190.113 63.84 190.263 64.032C190.433 64.224 190.7 64.3307 191.063 64.352V68C190.337 68.1493 189.708 68.224 189.175 68.224C188.364 68.224 187.735 68.0427 187.287 67.68C186.86 67.3173 186.593 66.8373 186.487 66.24L186.391 65.312C185.644 66.2933 184.737 67.04 183.671 67.552C182.604 68.064 181.463 68.32 180.247 68.32ZM181.463 65.184C182.188 65.184 182.871 65.056 183.511 64.8C184.172 64.544 184.684 64.2027 185.047 63.776C185.516 63.4133 185.751 63.008 185.751 62.56V60.64C185.239 60.448 184.684 60.2987 184.087 60.192C183.489 60.064 182.913 60 182.359 60C181.249 60 180.343 60.256 179.639 60.768C178.935 61.2587 178.583 61.888 178.583 62.656C178.583 63.3813 178.86 63.9893 179.415 64.48C179.969 64.9493 180.652 65.184 181.463 65.184ZM201.736 68H197.48V54.944H192.232V51.232H206.952V54.944H201.736V68ZM213.772 57.568H220.428V51.232H224.684V68H220.428V61.216H213.772V68H209.516V51.232H213.772V57.568ZM236.352 68.32C234.987 68.32 233.76 68.0853 232.672 67.616C231.584 67.1467 230.656 66.5173 229.888 65.728C229.142 64.9173 228.566 63.9893 228.16 62.944C227.755 61.8987 227.552 60.8 227.552 59.648C227.552 58.4747 227.755 57.3653 228.16 56.32C228.566 55.2747 229.142 54.3573 229.888 53.568C230.656 52.7573 231.584 52.1173 232.672 51.648C233.76 51.1787 234.987 50.944 236.352 50.944C237.718 50.944 238.934 51.1787 240 51.648C241.088 52.1173 242.006 52.7573 242.752 53.568C243.52 54.3573 244.107 55.2747 244.512 56.32C244.918 57.3653 245.12 58.4747 245.12 59.648C245.12 60.8 244.918 61.8987 244.512 62.944C244.107 63.9893 243.531 64.9173 242.784 65.728C242.038 66.5173 241.12 67.1467 240.032 67.616C238.944 68.0853 237.718 68.32 236.352 68.32ZM231.968 59.648C231.968 60.3947 232.075 61.0773 232.288 61.696C232.523 62.2933 232.832 62.816 233.216 63.264C233.622 63.712 234.091 64.064 234.624 64.32C235.158 64.5547 235.734 64.672 236.352 64.672C236.971 64.672 237.547 64.5547 238.08 64.32C238.614 64.064 239.072 63.712 239.456 63.264C239.862 62.816 240.171 62.2827 240.384 61.664C240.619 61.0453 240.736 60.3627 240.736 59.616C240.736 58.8907 240.619 58.2187 240.384 57.6C240.171 56.9813 239.862 56.448 239.456 56C239.072 55.552 238.614 55.2107 238.08 54.976C237.547 54.72 236.971 54.592 236.352 54.592C235.734 54.592 235.158 54.72 234.624 54.976C234.091 55.232 233.622 55.584 233.216 56.032C232.832 56.48 232.523 57.0133 232.288 57.632C232.075 58.2507 231.968 58.9227 231.968 59.648Z" fill="url(#paint0_radial_285_7109)"/>
<path d="M59.7799 49.6131C60.0042 50.6488 59.3816 51.6798 58.3605 51.9634L54.5054 53.0343C53.5439 53.3014 52.5327 52.8188 52.1354 51.9034L33.285 8.46663C32.5772 6.83571 33.435 4.95054 35.1296 4.41282L45.8936 0.997301C47.5789 0.462552 49.3588 1.4938 49.733 3.22181L59.7799 49.6131Z" fill="#F9A135"/>
<path d="M54.7816 65.1403C54.211 63.3421 54.2899 61.9402 55.0183 60.9346C55.7343 59.8899 56.7775 59.1501 58.1479 58.7152C59.4803 58.2925 60.7401 58.3015 61.9275 58.7422C63.1024 59.1439 63.9752 60.2438 64.5458 62.042C65.0916 63.762 65.0126 65.1639 64.3091 66.2477C63.5931 67.2924 62.5689 68.0262 61.2365 68.449C59.8661 68.8838 58.5872 68.8808 57.3999 68.4401C56.2001 67.9602 55.3274 66.8603 54.7816 65.1403Z" fill="#F9A135"/>
<defs>
<radialGradient id="paint0_radial_285_7109" cx="0" cy="0" r="1" gradientUnits="userSpaceOnUse" gradientTransform="translate(273.094 28.7021) rotate(158.234) scale(148.265 659.489)">
<stop stop-color="#AC4C3E"/>
<stop offset="1" stop-color="#AC4C3E" stop-opacity="0"/>
</radialGradient>
</defs>
</svg>
