<svg width="30" height="30" viewBox="0 0 30 30" fill="none" xmlns="http://www.w3.org/2000/svg">
<path fill-rule="evenodd" clip-rule="evenodd" d="M2.09961 7.0001C2.09961 6.50304 2.50255 6.1001 2.99961 6.1001H26.9996C27.4967 6.1001 27.8996 6.50304 27.8996 7.0001C27.8996 7.49715 27.4967 7.9001 26.9996 7.9001H2.99961C2.50255 7.9001 2.09961 7.49715 2.09961 7.0001Z" fill="white"/>
<path fill-rule="evenodd" clip-rule="evenodd" d="M2.09961 15.0001C2.09961 14.503 2.50255 14.1001 2.99961 14.1001H26.9996C27.4967 14.1001 27.8996 14.503 27.8996 15.0001C27.8996 15.4972 27.4967 15.9001 26.9996 15.9001H2.99961C2.50255 15.9001 2.09961 15.4972 2.09961 15.0001Z" fill="white"/>
<path fill-rule="evenodd" clip-rule="evenodd" d="M2.09961 23.0001C2.09961 22.503 2.50255 22.1001 2.99961 22.1001H20.9996C21.4967 22.1001 21.8996 22.503 21.8996 23.0001C21.8996 23.4972 21.4967 23.9001 20.9996 23.9001H2.99961C2.50255 23.9001 2.09961 23.4972 2.09961 23.0001Z" fill="white"/>
</svg>
