<svg width="42" height="42" viewBox="0 0 42 42" fill="none" xmlns="http://www.w3.org/2000/svg">
<circle cx="21" cy="21" r="21" fill="#AC4C3E"/>
<g clip-path="url(#clip0_517_4341)">
<path d="M31.5104 29.0524H28.8906C27.9604 29.0524 27.4812 28.5264 26.6885 27.6545C26.3687 27.3045 25.9771 26.8732 25.4552 26.3576C24.4094 25.3628 23.6302 24.8337 23.2104 24.8337C23.15 24.8337 23.1073 24.8357 23.0781 24.8378C23.0281 25.0597 23.0333 25.6691 23.0406 26.3628C23.0437 26.6951 23.0469 27.0795 23.0469 27.5253C23.0469 28.792 22.0896 29.0524 20.6531 29.0524C17.5708 29.0524 14.425 27.1993 12.2365 24.0951C9.06771 19.7087 8 16.1524 8 15.2045C8 14.4066 8.51667 13.9493 9.41875 13.9493H12.0396C13.1344 13.9493 13.4771 14.6462 13.7125 15.2982C14.9937 18.9951 16.874 21.5274 17.4937 21.843C17.5062 21.7597 17.5177 21.6232 17.5177 21.4035V17.5889C17.4687 16.7003 17.1708 16.3357 16.9083 16.0128C16.7062 15.766 16.4781 15.4868 16.4781 15.0628C16.4781 14.5264 16.9333 13.9482 17.6667 13.9482H21.7854C22.3604 13.9482 23.0448 14.2045 23.0448 15.4222V20.5503C23.0448 20.6232 23.049 20.6805 23.0552 20.7243C23.1812 20.6607 23.4167 20.5066 23.8 20.1274C25.5854 18.1555 26.8917 15.0347 26.9042 15.0035C27.199 14.3118 27.7583 13.9482 28.525 13.9482H31.1448C31.6854 13.9482 32.0771 14.1066 32.3083 14.418C32.4615 14.6232 32.6083 14.9899 32.4354 15.5712C32.4344 15.5743 32.4333 15.5774 32.4323 15.5816C32.0615 17.1045 29.3844 20.9451 28.8417 21.6576L28.8437 21.6587C28.7969 21.7326 28.674 21.9285 28.6729 21.9805C28.6729 21.9805 28.6792 22.043 28.8125 22.2118C28.8146 22.2149 28.8177 22.2191 28.8208 22.2222C28.8771 22.2899 29.0385 22.4503 29.2625 22.6764C31.8146 25.242 33.4167 27.1857 32.9417 28.3274C32.8021 28.6587 32.4427 29.0524 31.5104 29.0524ZM23.2115 23.792C23.7354 23.792 24.4969 24.0087 26.1823 25.6097C26.7271 26.1482 27.1312 26.592 27.4604 26.9535C28.2229 27.791 28.4406 28.0107 28.8927 28.0107H31.5125C31.8323 28.0107 31.9615 27.9472 31.9812 27.9243C32.0552 27.7597 32.0323 26.9389 28.524 23.4107C28.25 23.1347 28.0594 22.9357 27.9927 22.8545C27.4125 22.116 27.6354 21.6253 27.9615 21.1055C27.9865 21.0639 28.0188 21.0274 28.0542 20.9951C28.4677 20.4128 31.1562 16.5514 31.426 15.3118C31.4312 15.2878 31.4385 15.2639 31.4469 15.241C31.4833 15.1066 31.4719 15.0451 31.4698 15.0337C31.4604 15.0337 31.376 14.9899 31.1448 14.9899H28.525C28.124 14.9899 27.9719 15.1566 27.8646 15.4066C27.8104 15.5368 26.476 18.7222 24.551 20.8472C23.975 21.418 23.2521 22.016 22.601 21.742C22.3281 21.6285 22.0031 21.3295 22.0031 20.5493V15.4222C22.0031 15.0962 21.9469 15.0139 21.9427 15.0087C21.9406 15.0087 21.899 14.9899 21.7854 14.9899H17.6656C17.5521 14.9899 17.5208 15.0493 17.5187 15.0649C17.5187 15.1149 17.6135 15.2316 17.7146 15.3545C18.0229 15.7326 18.4896 16.3045 18.5594 17.5597L18.5604 21.4024C18.5604 21.893 18.5604 22.9128 17.5552 22.9128C16.0719 22.9128 13.7604 18.616 12.7302 15.6462C12.5042 15.0212 12.3844 14.991 12.0396 14.991H9.41875C9.04167 14.991 9.04167 15.0493 9.04167 15.2045C9.04167 15.6222 9.7875 18.9264 13.0844 23.4899C15.0812 26.3232 17.9104 28.0107 20.6542 28.0107C22.0062 28.0107 22.0062 27.8076 22.0062 27.5253C22.0062 27.0837 22.0031 26.7014 22 26.3722C21.9865 24.9597 21.9812 24.4305 22.3344 24.0743C22.5812 23.8264 22.9021 23.792 23.2115 23.792Z" fill="white"/>
</g>
<defs>
<clipPath id="clip0_517_4341">
<rect width="25" height="25" fill="white" transform="translate(8 9)"/>
</clipPath>
</defs>
</svg>
