<svg width="96" height="109" viewBox="0 0 96 109" fill="none" xmlns="http://www.w3.org/2000/svg">
<path d="M8.6542 96.9138L6.01688 101.581C5.87475 101.829 5.79578 102.108 5.79578 102.403V102.713H5.5589V102.434C5.5589 102.139 5.47994 101.845 5.33781 101.597L2.70049 96.9138H0V107.226H1.73716V99.1622C1.73716 98.9452 1.70557 98.7281 1.61082 98.5265L1.42131 98.0303L1.62661 97.9527L1.8477 98.48C1.87929 98.542 1.91087 98.604 1.94246 98.666L4.70611 103.566H6.63278L9.44381 98.604C9.4754 98.5265 9.50698 98.4645 9.53857 98.4024L9.72808 97.9527L9.94917 98.0303L9.74387 98.5265C9.66491 98.7281 9.61753 98.9452 9.61753 99.1622V107.226H11.3705V96.9138H8.6542Z" fill="white"/>
<path d="M18.2389 96.6967C14.8594 96.6967 12.1273 99.1002 12.1273 102.062C12.1273 105.039 14.8594 107.443 18.2389 107.443C21.6343 107.443 24.3663 105.039 24.3663 102.062C24.3663 99.1002 21.6343 96.6967 18.2389 96.6967ZM18.2389 105.939C15.8227 105.939 13.8644 104.202 13.8644 102.062C13.8644 99.9376 15.8227 98.2008 18.2389 98.2008C20.6551 98.2008 22.6134 99.9376 22.6134 102.062C22.6134 104.202 20.6551 105.939 18.2389 105.939Z" fill="white"/>
<path d="M31.6766 96.061V94.7584H28.3918V96.061H31.6766ZM33.2084 96.9138L27.2547 104.574C27.1442 104.714 27.0494 104.884 26.9863 105.07L26.7494 105.752L26.5283 105.69L26.781 104.977C26.8283 104.807 26.8599 104.62 26.8599 104.434V96.9138H25.1228V107.226H26.8599L32.8136 99.5654C32.9242 99.4258 33.0189 99.2553 33.0821 99.0692L33.319 98.3869L33.5401 98.4489L33.3032 99.1622C33.24 99.3328 33.2084 99.5189 33.2084 99.705V107.226H34.9614V96.9138H33.2084Z" fill="white"/>
<path d="M41.717 96.9138V107.226H43.4542V98.4179H49.3605V96.9138H41.717Z" fill="white"/>
<path d="M55.0208 96.6967C51.6413 96.6967 48.9092 99.1002 48.9092 102.062C48.9092 105.039 51.6413 107.443 55.0208 107.443C58.4162 107.443 61.1483 105.039 61.1483 102.062C61.1483 99.1002 58.4162 96.6967 55.0208 96.6967ZM55.0208 105.939C52.6046 105.939 50.6464 104.202 50.6464 102.062C50.6464 99.9376 52.6046 98.2008 55.0208 98.2008C57.4371 98.2008 59.3953 99.9376 59.3953 102.062C59.3953 104.202 57.4371 105.939 55.0208 105.939Z" fill="white"/>
<path d="M67.5899 96.9138H61.9047V107.226H63.6418V98.4179H67.5899C68.6638 98.4179 69.5482 99.3793 69.5482 100.558C69.5482 101.752 68.6638 102.713 67.5899 102.713C66.5003 102.713 65.6159 101.752 65.6159 100.558H63.8629C63.8629 102.589 65.5369 104.217 67.5899 104.217C69.6429 104.217 71.3011 102.589 71.3011 100.558C71.3011 98.542 69.6429 96.9138 67.5899 96.9138Z" fill="white"/>
<path d="M77.676 96.6967C74.2965 96.6967 71.5644 99.1002 71.5644 102.062C71.5644 105.039 74.2965 107.443 77.676 107.443C81.0714 107.443 83.8035 105.039 83.8035 102.062C83.8035 99.1002 81.0714 96.6967 77.676 96.6967ZM77.676 105.939C75.2598 105.939 73.3016 104.202 73.3016 102.062C73.3016 99.9376 75.2598 98.2008 77.676 98.2008C80.0923 98.2008 82.0505 99.9376 82.0505 102.062C82.0505 104.202 80.0923 105.939 77.676 105.939Z" fill="white"/>
<path d="M93.4489 105.721V96.9138H84.9052L84.6999 105.287C84.6999 105.644 84.3051 105.939 83.8156 105.939H83.3892L83.5945 108.296H85.1263V107.598C85.1263 107.489 85.0947 107.381 85.0316 107.288L84.5894 106.636L84.7947 106.512L85.0947 106.962C85.2053 107.133 85.3948 107.226 85.5843 107.226H92.5487C92.754 107.226 92.9277 107.133 93.0383 106.962L93.3541 106.512L93.5436 106.636L93.1014 107.288C93.0383 107.381 93.0067 107.489 93.0067 107.598V108.296H94.5386L94.7596 105.721H93.4489ZM91.6959 105.721H86.3897C86.4213 105.582 86.4371 105.442 86.4371 105.287L86.6266 98.2008H91.6959V105.721Z" fill="white"/>
<path fill-rule="evenodd" clip-rule="evenodd" d="M8.98382 35.3276C8.47011 35.3276 8.05368 35.8048 8.05368 36.3934V38.9245C8.05368 39.5131 8.47011 39.9903 8.98382 39.9903H19.0991C19.6128 39.9903 20.0292 39.5131 20.0292 38.9245V36.3934C20.0292 35.8048 19.6128 35.3276 19.0991 35.3276H8.98382ZM8.75128 36.3934C8.75128 36.2462 8.85539 36.1269 8.98382 36.1269H19.0991C19.2275 36.1269 19.3316 36.2462 19.3316 36.3934V38.9245C19.3316 39.0717 19.2275 39.191 19.0991 39.191H8.98382C8.85539 39.191 8.75128 39.0717 8.75128 38.9245V36.3934Z" fill="white"/>
<path fill-rule="evenodd" clip-rule="evenodd" d="M30.7258 35.3276C30.2121 35.3276 29.7957 35.8048 29.7957 36.3934V38.9245C29.7957 39.5131 30.2121 39.9903 30.7258 39.9903H64.9084C65.4221 39.9903 65.8385 39.5131 65.8385 38.9245V36.3934C65.8385 35.8048 65.4221 35.3276 64.9084 35.3276H30.7258ZM30.4933 36.3934C30.4933 36.2462 30.5974 36.1269 30.7258 36.1269H64.9084C65.0368 36.1269 65.1409 36.2462 65.1409 36.3934V38.9245C65.1409 39.0717 65.0368 39.191 64.9084 39.191H30.7258C30.5974 39.191 30.4933 39.0717 30.4933 38.9245V36.3934Z" fill="white"/>
<path fill-rule="evenodd" clip-rule="evenodd" d="M76.4189 35.3276C75.9052 35.3276 75.4887 35.8048 75.4887 36.3934V38.9245C75.4887 39.5131 75.9052 39.9903 76.4189 39.9903H86.5341C87.0478 39.9903 87.4643 39.5131 87.4643 38.9245V36.3934C87.4643 35.8048 87.0478 35.3276 86.5341 35.3276H76.4189ZM76.1863 36.3934C76.1863 36.2462 76.2904 36.1269 76.4189 36.1269H86.5341C86.6625 36.1269 86.7666 36.2462 86.7666 36.3934V38.9245C86.7666 39.0717 86.6625 39.191 86.5341 39.191H76.4189C76.2904 39.191 76.1863 39.0717 76.1863 38.9245V36.3934Z" fill="white"/>
<path fill-rule="evenodd" clip-rule="evenodd" d="M9.21635 45.8519C8.70265 45.8519 8.28621 46.3291 8.28621 46.9177V48.7827C8.28621 49.3713 8.70265 49.8485 9.21635 49.8485H10.8441C11.3578 49.8485 11.7742 49.3713 11.7742 48.7827V46.9177C11.7742 46.3291 11.3578 45.8519 10.8441 45.8519H9.21635ZM8.98382 46.9177C8.98382 46.7705 9.08792 46.6512 9.21635 46.6512H10.8441C10.9725 46.6512 11.0766 46.7705 11.0766 46.9177V48.7827C11.0766 48.9299 10.9725 49.0492 10.8441 49.0492H9.21635C9.08792 49.0492 8.98382 48.9299 8.98382 48.7827V46.9177Z" fill="white"/>
<path fill-rule="evenodd" clip-rule="evenodd" d="M13.6345 45.8519C13.1208 45.8519 12.7044 46.3291 12.7044 46.9177V48.7827C12.7044 49.3713 13.1208 49.8485 13.6345 49.8485H15.2623C15.776 49.8485 16.1924 49.3713 16.1924 48.7827V46.9177C16.1924 46.3291 15.776 45.8519 15.2623 45.8519H13.6345ZM13.402 46.9177C13.402 46.7705 13.5061 46.6512 13.6345 46.6512H15.2623C15.3907 46.6512 15.4948 46.7705 15.4948 46.9177V48.7827C15.4948 48.9299 15.3907 49.0492 15.2623 49.0492H13.6345C13.5061 49.0492 13.402 48.9299 13.402 48.7827V46.9177Z" fill="white"/>
<path fill-rule="evenodd" clip-rule="evenodd" d="M18.0527 45.8519C17.539 45.8519 17.1225 46.3291 17.1225 46.9177V48.7827C17.1225 49.3713 17.539 49.8485 18.0527 49.8485H19.6804C20.1941 49.8485 20.6105 49.3713 20.6105 48.7827V46.9177C20.6105 46.3291 20.1941 45.8519 19.6804 45.8519H18.0527ZM17.8201 46.9177C17.8201 46.7705 17.9242 46.6512 18.0527 46.6512H19.6804C19.8088 46.6512 19.9129 46.7705 19.9129 46.9177V48.7827C19.9129 48.9299 19.8088 49.0492 19.6804 49.0492H18.0527C17.9242 49.0492 17.8201 48.9299 17.8201 48.7827V46.9177Z" fill="white"/>
<path fill-rule="evenodd" clip-rule="evenodd" d="M22.4708 45.8519C21.9571 45.8519 21.5407 46.3291 21.5407 46.9177V48.7827C21.5407 49.3713 21.9571 49.8485 22.4708 49.8485H24.0986C24.6123 49.8485 25.0287 49.3713 25.0287 48.7827V46.9177C25.0287 46.3291 24.6123 45.8519 24.0986 45.8519H22.4708ZM22.2383 46.9177C22.2383 46.7705 22.3424 46.6512 22.4708 46.6512H24.0986C24.227 46.6512 24.3311 46.7705 24.3311 46.9177V48.7827C24.3311 48.9299 24.227 49.0492 24.0986 49.0492H22.4708C22.3424 49.0492 22.2383 48.9299 22.2383 48.7827V46.9177Z" fill="white"/>
<path fill-rule="evenodd" clip-rule="evenodd" d="M71.6519 45.8519C71.1382 45.8519 70.7218 46.3291 70.7218 46.9177V48.7827C70.7218 49.3713 71.1382 49.8485 71.6519 49.8485H73.2796C73.7933 49.8485 74.2098 49.3713 74.2098 48.7827V46.9177C74.2098 46.3291 73.7933 45.8519 73.2796 45.8519H71.6519ZM71.4194 46.9177C71.4194 46.7705 71.5235 46.6512 71.6519 46.6512H73.2796C73.4081 46.6512 73.5122 46.7705 73.5122 46.9177V48.7827C73.5122 48.9299 73.4081 49.0492 73.2796 49.0492H71.6519C71.5235 49.0492 71.4194 48.9299 71.4194 48.7827V46.9177Z" fill="white"/>
<path fill-rule="evenodd" clip-rule="evenodd" d="M76.0701 45.8519C75.5564 45.8519 75.1399 46.3291 75.1399 46.9177V48.7827C75.1399 49.3713 75.5564 49.8485 76.0701 49.8485H77.6978C78.2115 49.8485 78.6279 49.3713 78.6279 48.7827V46.9177C78.6279 46.3291 78.2115 45.8519 77.6978 45.8519H76.0701ZM75.8375 46.9177C75.8375 46.7705 75.9416 46.6512 76.0701 46.6512H77.6978C77.8262 46.6512 77.9303 46.7705 77.9303 46.9177V48.7827C77.9303 48.9299 77.8262 49.0492 77.6978 49.0492H76.0701C75.9416 49.0492 75.8375 48.9299 75.8375 48.7827V46.9177Z" fill="white"/>
<path fill-rule="evenodd" clip-rule="evenodd" d="M80.4882 45.8519C79.9745 45.8519 79.5581 46.3291 79.5581 46.9177V48.7827C79.5581 49.3713 79.9745 49.8485 80.4882 49.8485H82.116C82.6297 49.8485 83.0461 49.3713 83.0461 48.7827V46.9177C83.0461 46.3291 82.6297 45.8519 82.116 45.8519H80.4882ZM80.2557 46.9177C80.2557 46.7705 80.3598 46.6512 80.4882 46.6512H82.116C82.2444 46.6512 82.3485 46.7705 82.3485 46.9177V48.7827C82.3485 48.9299 82.2444 49.0492 82.116 49.0492H80.4882C80.3598 49.0492 80.2557 48.9299 80.2557 48.7827V46.9177Z" fill="white"/>
<path fill-rule="evenodd" clip-rule="evenodd" d="M84.9064 45.8519C84.3927 45.8519 83.9762 46.3291 83.9762 46.9177V48.7827C83.9762 49.3713 84.3927 49.8485 84.9064 49.8485H86.5341C87.0478 49.8485 87.4643 49.3713 87.4643 48.7827V46.9177C87.4643 46.3291 87.0478 45.8519 86.5341 45.8519H84.9064ZM84.6738 46.9177C84.6738 46.7705 84.778 46.6512 84.9064 46.6512H86.5341C86.6625 46.6512 86.7666 46.7705 86.7666 46.9177V48.7827C86.7666 48.9299 86.6625 49.0492 86.5341 49.0492H84.9064C84.778 49.0492 84.6738 48.9299 84.6738 48.7827V46.9177Z" fill="white"/>
<path fill-rule="evenodd" clip-rule="evenodd" d="M48.0635 0L55.4811 7.61356e-05L53.5355 2.07096L55.4811 4.14185H48.8942V12.4303H71.6304C72.398 12.4303 73.0202 13.0484 73.0202 13.8109V15.4676C73.0202 16.2301 72.398 16.8482 71.6304 16.8482H71.0459V31.2035H91.0878C91.8553 31.2035 92.4775 31.8216 92.4775 32.5841V51.9102H94.0292C94.5664 51.9102 95.002 52.2948 95.002 52.7692V55.469C95.002 55.9434 94.5664 56.328 94.0292 56.328H92.4775V84.7704C92.4775 85.5317 91.8579 86.151 91.0892 86.151H85.1062V86.1546H84.2724V69.8808C83.7015 67.9239 82.7557 65.9918 80.8163 64.7545C78.3445 63.1776 75.5697 63.7154 73.7728 65.358C73.5526 65.944 73.4323 66.5783 73.4323 67.2405C73.4323 67.2755 73.4326 67.3104 73.4333 67.3452C73.4328 67.3525 73.4325 67.36 73.4324 67.3674L73.4323 67.3786V86.1546H72.9376V86.1567H57.2521V86.1516H56.7773V62.6606C55.903 59.0745 54.4183 55.3245 50.7045 53.0187C46.5351 50.4301 41.8771 51.3605 39.0209 54.2172C38.6406 55.2178 38.4325 56.3024 38.4325 57.4353C38.4325 57.5094 38.4334 57.5833 38.4352 57.657C38.4334 57.6749 38.4325 57.693 38.4325 57.7114V86.1516H38.167V86.1551H22.7266V86.1505H22.0128V69.8796C21.4419 67.9227 20.4962 65.9906 18.5568 64.7533C16.0842 63.1759 13.3084 63.7145 11.5116 65.3583C11.2925 65.9431 11.1727 66.5758 11.1727 67.2364C11.1727 67.2714 11.1731 67.3062 11.1737 67.341C11.1731 67.3521 11.1727 67.3632 11.1727 67.3745V86.1505L4.08894 86.151C3.3214 86.151 2.69918 85.5329 2.69918 84.7704V56.3298H1.21791C0.680633 56.3298 0.245083 55.9452 0.245083 55.4708V52.7709C0.245083 52.2965 0.680634 51.9119 1.21791 51.9119H2.69918V32.5841C2.69918 31.8216 3.3214 31.2035 4.08894 31.2035H26.0177V16.8482H25.4905C24.7229 16.8482 24.1007 16.2301 24.1007 15.4676V13.8109C24.1007 13.0484 24.7229 12.4303 25.4905 12.4303H48.0635V0ZM91.3657 56.328H65.1222C64.5849 56.328 64.1494 55.9434 64.1494 55.469V52.7692C64.1494 52.2948 64.5849 51.9102 65.1222 51.9102H91.3657V32.5841C91.3657 32.4316 91.2413 32.308 91.0878 32.308H71.0459V32.311H26.0177V32.308H4.08894C3.93543 32.308 3.81099 32.4316 3.81099 32.5841V51.9119H30.1249C30.6621 51.9119 31.0977 52.2965 31.0977 52.7709V55.4708C31.0977 55.9452 30.6621 56.3298 30.1249 56.3298H3.81099V84.7704C3.81099 84.9229 3.93543 85.0466 4.08894 85.0466H8.42105V67.3721C8.42105 67.3587 8.42124 67.3453 8.42163 67.3319L8.42121 67.2857L8.42105 67.234C8.42105 62.7354 12.0921 59.0885 16.6206 59.0885C21.1491 59.0885 24.8202 62.7354 24.8202 67.234C24.8202 67.2667 24.82 67.2993 24.8196 67.332C24.82 67.3453 24.8202 67.3587 24.8202 67.3721V85.0474H34.0322V57.9851C34.0322 57.9751 34.0323 57.9651 34.0325 57.9551C34.0328 57.9429 34.0332 57.9307 34.0338 57.9186C34.0327 57.8488 34.0322 57.779 34.0322 57.709C34.0322 50.2367 40.1299 44.1792 47.6518 44.1792C55.1737 44.1792 61.2714 50.2367 61.2714 57.709L61.2712 57.7969C61.2709 57.8375 61.2705 57.8781 61.2698 57.9186C61.2709 57.9407 61.2714 57.9629 61.2714 57.9851V85.0491H70.7744V67.3731L70.7745 67.3603L70.775 67.333L70.7746 67.2787L70.7744 67.2351C70.7744 62.7364 74.4455 59.0896 78.974 59.0896C83.5025 59.0896 87.1736 62.7364 87.1736 67.2351C87.1736 67.2678 87.1734 67.3004 87.173 67.333C87.1734 67.3464 87.1736 67.3597 87.1736 67.3731V85.0466H91.0892C91.2415 85.0466 91.3657 84.9242 91.3657 84.7704V56.328ZM86.3397 85.0466V67.3731C86.3397 67.3632 86.3395 67.3532 86.3389 67.3434C86.3395 67.3074 86.3397 67.2712 86.3397 67.2351C86.3397 63.1939 83.042 59.9179 78.974 59.9179C74.906 59.9179 71.6083 63.1939 71.6083 67.2351C71.6083 67.2712 71.6086 67.3074 71.6091 67.3434C71.6086 67.3532 71.6083 67.3632 71.6083 67.3731V85.0491H72.5984V67.3786L72.5986 67.3561L72.5991 67.3345C72.5986 67.3033 72.5984 67.2719 72.5984 67.2405C72.5984 63.8094 75.3984 61.0279 78.8523 61.0279C82.3062 61.0279 85.1062 63.8094 85.1062 67.2405C85.1062 67.2719 85.106 67.3033 85.1055 67.3345L85.106 67.3521L85.1062 67.3786V85.0466H86.3397ZM37.5986 85.0474H34.866V57.9851C34.866 57.9691 34.8667 57.9533 34.8681 57.9376C34.8667 57.8616 34.866 57.7854 34.866 57.709C34.866 50.6942 40.5904 45.0076 47.6518 45.0076C54.7132 45.0076 60.4376 50.6942 60.4376 57.709C60.4376 57.7854 60.4369 57.8616 60.4356 57.9376C60.4358 57.941 60.4361 57.9444 60.4363 57.9478C60.4366 57.9513 60.4368 57.9549 60.4369 57.9584C60.4374 57.9673 60.4376 57.9762 60.4376 57.9851V85.0491H57.6111V57.7114L57.6109 57.6844C57.6106 57.6685 57.61 57.6526 57.6091 57.6368C57.6105 57.5698 57.6111 57.5026 57.6111 57.4353C57.6111 51.9454 53.1312 47.495 47.6049 47.495C42.0786 47.495 37.5986 51.9454 37.5986 57.4353C37.5986 57.5026 37.5993 57.5698 37.6007 57.6368C37.5993 57.6615 37.5986 57.6864 37.5986 57.7114V85.0474ZM23.9863 85.0474V67.3721C23.9863 67.3621 23.9861 67.3522 23.9855 67.3423L23.9861 67.2865L23.9863 67.234C23.9863 63.1929 20.6886 59.9169 16.6206 59.9169C12.5526 59.9169 9.2549 63.1929 9.2549 67.234C9.2549 67.2702 9.25517 67.3063 9.25569 67.3423C9.25517 67.3522 9.2549 67.3621 9.2549 67.3721V85.0466H10.3389V67.3745L10.3391 67.347L10.3396 67.3304C10.3391 67.2991 10.3389 67.2678 10.3389 67.2364C10.3389 63.8053 13.1388 61.0238 16.5928 61.0238C20.0467 61.0238 22.8467 63.8053 22.8467 67.2364C22.8467 67.2678 22.8465 67.2991 22.846 67.3304C22.8465 67.345 22.8467 67.3597 22.8467 67.3745V85.0474H23.9863ZM70.2159 31.2035V16.8541L48.7453 16.9251L26.8477 16.8551V31.2035H33.7629L33.7629 23.5506C33.7629 22.6686 33.9635 21.8484 34.3097 21.234C34.6522 20.6264 35.1787 20.1592 35.83 20.1592C36.4814 20.1592 37.0078 20.6263 37.3503 21.234C37.6965 21.8483 37.8972 22.6685 37.8972 23.5505L37.8972 31.2035H40.1645V23.5506C40.1645 22.6686 40.3652 21.8484 40.7114 21.2341C41.0538 20.6264 41.5803 20.1592 42.2317 20.1592C42.883 20.1592 43.4095 20.6264 43.7519 21.2341C44.0982 21.8484 44.2988 22.6686 44.2988 23.5506V31.2035H46.5661V23.5506C46.5661 22.6686 46.7668 21.8484 47.113 21.2341C47.4555 20.6264 47.9819 20.1592 48.6333 20.1592C49.2846 20.1592 49.8111 20.6264 50.1536 21.2341C50.4998 21.8484 50.7004 22.6686 50.7004 23.5506V31.2035H52.9677V23.5506C52.9678 22.6686 53.1684 21.8484 53.5146 21.2341C53.8571 20.6264 54.3835 20.1592 55.0349 20.1592C55.6863 20.1592 56.2127 20.6264 56.5552 21.2341C56.9014 21.8484 57.1021 22.6686 57.1021 23.5506V31.2035H59.3693V23.5506C59.3694 22.6686 59.57 21.8484 59.9162 21.2341C60.2587 20.6264 60.7851 20.1592 61.4365 20.1592C62.0879 20.1592 62.6143 20.6264 62.9568 21.2341C63.303 21.8484 63.5037 22.6686 63.5037 23.5506V31.2035H70.2159ZM62.6774 31.2035V23.5668C62.6116 23.0137 62.2911 22.415 61.5779 22.1788C60.8467 21.9367 60.3292 22.9039 60.2129 23.1456C60.2015 23.2769 60.1956 23.4122 60.1956 23.5506V31.2035H62.6774ZM56.2758 31.2035V23.5506L56.2757 23.5085C56.1955 22.9713 55.873 22.4041 55.1835 22.1758C54.4327 21.9272 53.9072 22.9536 53.81 23.1605C53.7995 23.2871 53.794 23.4174 53.794 23.5506V31.2035H56.2758ZM49.8742 31.2035V23.8079L49.8695 23.838C49.8886 23.2231 49.5916 22.4514 48.7577 22.1753C48.0642 21.9456 47.563 22.8038 47.4139 23.0992C47.3998 23.245 47.3923 23.3958 47.3923 23.5506V31.2035H49.8742ZM43.4726 31.2035V23.5506C43.4726 23.4497 43.4694 23.3505 43.4633 23.2533C43.3283 22.8017 43.008 22.3706 42.4286 22.1787C41.5948 21.9026 41.0389 23.1991 41.0389 23.1991L41.0107 23.1153C40.9976 23.2561 40.9907 23.4015 40.9907 23.5506V31.2035H43.4726ZM37.071 31.2035L37.071 23.5505C37.071 23.3973 37.0637 23.2481 37.0499 23.1037C36.8923 22.709 36.5822 22.3497 36.0674 22.1792C35.2335 21.9031 34.6776 23.1996 34.6776 23.1996L34.6186 23.0236C34.5994 23.1927 34.5891 23.3689 34.5891 23.5506L34.5891 31.2035H37.071ZM24.9346 13.8109C24.9346 13.5059 25.1834 13.2587 25.4905 13.2587H71.6304C71.9374 13.2587 72.1863 13.5059 72.1863 13.8109V15.4676C72.1863 15.7726 71.9374 16.0199 71.6304 16.0199H25.4905C25.1834 16.0199 24.9346 15.7726 24.9346 15.4676V13.8109ZM1.21791 52.6482C1.14116 52.6482 1.07894 52.7032 1.07894 52.7709V55.4708C1.07894 55.5385 1.14116 55.5935 1.21791 55.5935H30.1249C30.2016 55.5935 30.2638 55.5385 30.2638 55.4708V52.7709C30.2638 52.7032 30.2016 52.6482 30.1249 52.6482H1.21791ZM65.1222 52.6465C65.0454 52.6465 64.9832 52.7014 64.9832 52.7692V55.469C64.9832 55.5368 65.0454 55.5917 65.1222 55.5917H94.0292C94.1059 55.5917 94.1681 55.5368 94.1681 55.469V52.7692C94.1681 52.7014 94.1059 52.6465 94.0292 52.6465H65.1222Z" fill="white"/>
</svg>
