<svg width="116" height="18" viewBox="0 0 116 18" fill="none" xmlns="http://www.w3.org/2000/svg">
<path d="M10.594 2.86598L7.36556 9.07216C7.19157 9.40206 7.09491 9.7732 7.09491 10.165V10.5773H6.80493V10.2062C6.80493 9.81443 6.70827 9.42269 6.53428 9.09279L3.3058 2.86598H0V16.5773H2.12654V5.85567C2.12654 5.56701 2.08788 5.27835 1.97188 5.01031L1.7399 4.35052L1.99121 4.24743L2.26186 4.94845C2.30053 5.03093 2.33919 5.11341 2.37786 5.19588L5.76099 11.7113H8.11951L11.5606 5.1134C11.5993 5.01031 11.638 4.92784 11.6766 4.84536L11.9086 4.24743L12.1793 4.35052L11.928 5.01031C11.8313 5.27835 11.7733 5.56701 11.7733 5.85567V16.5773H13.9192V2.86598H10.594Z" fill="white"/>
<path d="M22.3272 2.57732C18.1901 2.57732 14.8456 5.77319 14.8456 9.71134C14.8456 13.6701 18.1901 16.866 22.3272 16.866C26.4836 16.866 29.828 13.6701 29.828 9.71134C29.828 5.77319 26.4836 2.57732 22.3272 2.57732ZM22.3272 14.866C19.3693 14.866 16.9721 12.5567 16.9721 9.71134C16.9721 6.8866 19.3693 4.57732 22.3272 4.57732C25.285 4.57732 27.6822 6.8866 27.6822 9.71134C27.6822 12.5567 25.285 14.866 22.3272 14.866Z" fill="white"/>
<path d="M38.7769 1.73196V0H34.7558V1.73196H38.7769ZM40.6521 2.86598L33.3639 13.0515C33.2285 13.2371 33.1125 13.4639 33.0352 13.7113L32.7452 14.6186L32.4746 14.5361L32.7839 13.5876C32.8419 13.3608 32.8806 13.1134 32.8806 12.866V2.86598H30.754V16.5773H32.8806L40.1688 6.39175C40.3041 6.20619 40.4201 5.97939 40.4974 5.73197L40.7874 4.82475L41.0581 4.90721L40.7681 5.85567C40.6908 6.08247 40.6521 6.3299 40.6521 6.57732V16.5773H42.798V2.86598H40.6521Z" fill="white"/>
<path d="M51.0679 2.86598V16.5773H53.1944V4.86598H60.4247V2.86598H51.0679Z" fill="white"/>
<path d="M67.3538 2.57732C63.2167 2.57732 59.8722 5.77319 59.8722 9.71134C59.8722 13.6701 63.2167 16.866 67.3538 16.866C71.5102 16.866 74.8546 13.6701 74.8546 9.71134C74.8546 5.77319 71.5102 2.57732 67.3538 2.57732ZM67.3538 14.866C64.3959 14.866 61.9987 12.5567 61.9987 9.71134C61.9987 6.8866 64.3959 4.57732 67.3538 4.57732C70.3116 4.57732 72.7088 6.8866 72.7088 9.71134C72.7088 12.5567 70.3116 14.866 67.3538 14.866Z" fill="white"/>
<path d="M82.7402 2.86598H75.7806V16.5773H77.9072V4.86598H82.7402C84.0548 4.86598 85.1374 6.14433 85.1374 7.71134C85.1374 9.29897 84.0548 10.5773 82.7402 10.5773C81.4063 10.5773 80.3237 9.29897 80.3237 7.71134H78.1778C78.1778 10.4124 80.227 12.5773 82.7402 12.5773C85.2534 12.5773 87.2833 10.4124 87.2833 7.71134C87.2833 5.03093 85.2534 2.86598 82.7402 2.86598Z" fill="white"/>
<path d="M95.0871 2.57732C90.95 2.57732 87.6056 5.77319 87.6056 9.71134C87.6056 13.6701 90.95 16.866 95.0871 16.866C99.2435 16.866 102.588 13.6701 102.588 9.71134C102.588 5.77319 99.2435 2.57732 95.0871 2.57732ZM95.0871 14.866C92.1293 14.866 89.7321 12.5567 89.7321 9.71134C89.7321 6.8866 92.1293 4.57732 95.0871 4.57732C98.0449 4.57732 100.442 6.8866 100.442 9.71134C100.442 12.5567 98.0449 14.866 95.0871 14.866Z" fill="white"/>
<path d="M114.395 14.5773V2.86598H103.937L103.685 14C103.685 14.4742 103.202 14.866 102.603 14.866H102.081L102.332 18H104.207V17.0722C104.207 16.9278 104.169 16.7835 104.091 16.6598L103.55 15.7938L103.801 15.6289L104.169 16.2268C104.304 16.4536 104.536 16.5773 104.768 16.5773H113.294C113.545 16.5773 113.757 16.4536 113.893 16.2268L114.279 15.6289L114.511 15.7938L113.97 16.6598C113.893 16.7835 113.854 16.9278 113.854 17.0722V18H115.729L116 14.5773H114.395ZM112.25 14.5773H105.754C105.793 14.3918 105.812 14.2062 105.812 14L106.044 4.57732H112.25V14.5773Z" fill="white"/>
</svg>
