<svg width="42" height="42" viewBox="0 0 42 42" fill="none" xmlns="http://www.w3.org/2000/svg">
<circle cx="21" cy="21" r="21" fill="#AC4C3E"/>
<path d="M31.2743 11.88C30.7983 11.5005 30.1442 11.4029 29.571 11.6257L10.1609 19.1605C9.30709 19.4984 8.89984 20.4379 9.25128 21.2588C9.43305 21.6834 9.79486 22.0129 10.2455 22.1644L14.4329 23.5642L16.7022 30.7785C16.7067 30.7932 16.7208 30.8022 16.7266 30.8163C16.7501 30.8738 16.7844 30.9268 16.8277 30.9724C16.8439 30.9908 16.8615 31.008 16.8802 31.0239C16.9368 31.0691 17.0024 31.1025 17.073 31.1219C17.0838 31.125 17.091 31.1342 17.102 31.1366L17.1084 31.1363L17.1115 31.1376C17.1477 31.1454 17.1846 31.1491 17.2216 31.1488C17.2699 31.1472 17.3178 31.1391 17.3638 31.125C17.3728 31.1226 17.3818 31.1232 17.3905 31.1205C17.4691 31.0938 17.5401 31.05 17.598 30.9924C17.6047 30.9859 17.615 30.9848 17.6215 30.9779L20.8863 27.5142L25.6491 31.0603C25.9385 31.2779 26.2953 31.3961 26.6626 31.396C27.4572 31.3959 28.143 30.8607 28.3067 30.1132L31.8413 13.4283C31.9638 12.8511 31.7458 12.256 31.2743 11.88ZM17.8871 24.9324L17.1209 28.5123L15.5232 23.4313L23.4476 19.4636L18.0341 24.6689C17.9593 24.7409 17.9082 24.8326 17.8871 24.9324ZM27.2456 29.9037C27.2041 30.0954 27.0618 30.2527 26.8701 30.3187C26.6827 30.388 26.4711 30.3571 26.3136 30.2374L21.1529 26.3952C20.9295 26.2289 20.6106 26.2559 20.4208 26.4572L18.1506 28.8658L18.9154 25.2955L26.7029 17.8065C26.9146 17.6034 26.9149 17.2738 26.7036 17.0703C26.5365 16.9093 26.2801 16.8713 26.0703 16.9764L14.8433 22.598L10.6 21.1797C10.3687 21.1066 10.2114 20.9001 10.2085 20.666C10.1973 20.4303 10.3425 20.2135 10.5703 20.1259L29.9772 12.5921C30.18 12.5094 30.4139 12.544 30.5813 12.6816C30.7479 12.8109 30.8245 13.0195 30.7792 13.2207L27.2456 29.9037Z" fill="white"/>
</svg>
