<svg width="338" height="131" viewBox="0 0 338 131" fill="none" xmlns="http://www.w3.org/2000/svg">
<path d="M35.923 81.4663L35.928 81.4474L35.9325 81.4284C36.2779 79.9841 37.1107 78.6939 38.5407 77.5532C39.9162 76.4558 41.335 75.942 42.8296 75.9261L42.8491 75.9259L42.8686 75.9252C44.0119 75.8832 45.3837 76.5185 46.9779 78.5168C48.4639 80.3794 48.8401 81.8931 48.5778 83.156C48.2277 84.6018 47.4128 85.8647 46.0432 86.9574C44.6195 88.0932 43.1829 88.619 41.7047 88.6392C40.4152 88.6143 39.0229 87.9112 37.537 86.0487C35.9428 84.0504 35.628 82.5717 35.923 81.4663ZM34.1168 65.6942C34.5825 66.3431 34.4579 67.2431 33.8335 67.7412L30.0885 70.7289C29.4642 71.227 28.559 71.1485 28.0297 70.5504L3.35328 42.6627C2.78441 42.0198 2.87012 41.0315 3.54119 40.4961L10.2537 35.141C10.9248 34.6056 11.9074 34.7416 12.4079 35.4391L34.1168 65.6942Z" stroke="#AC4C3E" stroke-width="3"/>
<path d="M83.8736 107.191L83.5689 107.046L83.2318 107.046C82.8332 107.046 82.477 107.187 82.3081 107.257C82.0832 107.35 81.8392 107.472 81.5913 107.607C81.0921 107.88 80.47 108.262 79.761 108.721C78.3377 109.642 76.469 110.935 74.3475 112.431C72.6292 113.642 70.7468 114.986 68.7857 116.386C65.8713 118.466 62.7828 120.67 59.8003 122.75C56.8056 124.838 52.9126 122.437 53.5049 118.612C55.4407 106.113 56.6164 97.0184 57.1684 90.7007C57.4442 87.544 57.5669 85.0527 57.5467 83.1629C57.5272 81.3414 57.3777 79.8744 56.9782 78.9128C54.2945 72.4537 52.8111 65.3608 52.8111 57.9147C52.8111 27.8518 76.9992 3.50001 106.813 3.50001L282.498 3.50001C312.312 3.5 336.5 27.8518 336.5 57.9147C336.5 87.9777 312.312 112.33 282.498 112.33L106.813 112.33C98.6084 112.33 90.8346 110.487 83.8736 107.191Z" stroke="#AC4C3E" stroke-width="3"/>
<path d="M103.608 45.168C103.432 45.168 103.24 45.152 103.032 45.12C102.824 45.104 102.608 45.072 102.384 45.024C102.16 44.976 101.936 44.912 101.712 44.832C101.504 44.752 101.32 44.656 101.16 44.544L101.592 41.808C101.768 41.904 102.008 42.016 102.312 42.144C102.632 42.256 102.96 42.312 103.296 42.312C103.76 42.312 104.16 42.184 104.496 41.928C104.848 41.656 105.152 41.176 105.408 40.488L99.144 27.96H102.72L106.896 37.152L110.784 27.96H114.264L108.264 40.92C107.912 41.688 107.568 42.344 107.232 42.888C106.896 43.416 106.544 43.856 106.176 44.208C105.824 44.544 105.44 44.792 105.024 44.952C104.608 45.096 104.136 45.168 103.608 45.168ZM124.425 45H121.281V40.512C120.913 40.64 120.529 40.736 120.129 40.8C119.745 40.864 119.257 40.896 118.665 40.896C117.945 40.896 117.321 40.784 116.793 40.56C116.265 40.32 115.825 40.008 115.473 39.624C115.121 39.224 114.857 38.76 114.681 38.232C114.505 37.704 114.417 37.136 114.417 36.528V32.424H117.513V36.048C117.513 36.88 117.681 37.472 118.017 37.824C118.353 38.176 118.825 38.352 119.433 38.352C119.881 38.352 120.249 38.312 120.537 38.232C120.841 38.136 121.089 38.016 121.281 37.872V32.424H124.425V45ZM130.826 45.24C130.218 45.24 129.65 45.144 129.122 44.952C128.594 44.744 128.138 44.464 127.754 44.112C127.37 43.744 127.066 43.32 126.842 42.84C126.634 42.36 126.53 41.832 126.53 41.256C126.53 40.664 126.658 40.12 126.914 39.624C127.186 39.112 127.554 38.68 128.018 38.328C128.498 37.976 129.066 37.704 129.722 37.512C130.378 37.304 131.098 37.2 131.882 37.2C132.442 37.2 132.986 37.248 133.514 37.344C134.058 37.44 134.538 37.576 134.954 37.752V37.032C134.954 36.2 134.714 35.56 134.234 35.112C133.77 34.664 133.074 34.44 132.146 34.44C131.474 34.44 130.818 34.56 130.178 34.8C129.538 35.04 128.882 35.392 128.21 35.856L127.226 33.816C128.842 32.744 130.586 32.208 132.458 32.208C134.266 32.208 135.666 32.656 136.658 33.552C137.666 34.432 138.17 35.712 138.17 37.392V41.304C138.17 41.64 138.226 41.88 138.338 42.024C138.466 42.168 138.666 42.248 138.938 42.264V45C138.394 45.112 137.922 45.168 137.522 45.168C136.914 45.168 136.442 45.032 136.106 44.76C135.786 44.488 135.586 44.128 135.506 43.68L135.434 42.984C134.874 43.72 134.194 44.28 133.394 44.664C132.594 45.048 131.738 45.24 130.826 45.24ZM131.738 42.888C132.282 42.888 132.794 42.792 133.274 42.6C133.77 42.408 134.154 42.152 134.426 41.832C134.778 41.56 134.954 41.256 134.954 40.92V39.48C134.57 39.336 134.154 39.224 133.706 39.144C133.258 39.048 132.826 39 132.41 39C131.578 39 130.898 39.192 130.37 39.576C129.842 39.944 129.578 40.416 129.578 40.992C129.578 41.536 129.786 41.992 130.202 42.36C130.618 42.712 131.13 42.888 131.738 42.888ZM140.43 38.712C140.43 37.832 140.582 37 140.886 36.216C141.19 35.432 141.63 34.744 142.206 34.152C142.782 33.56 143.478 33.088 144.294 32.736C145.11 32.384 146.03 32.208 147.054 32.208C148.43 32.208 149.598 32.504 150.558 33.096C151.534 33.688 152.262 34.464 152.742 35.424L149.598 36.384C149.326 35.92 148.966 35.568 148.518 35.328C148.07 35.072 147.574 34.944 147.03 34.944C146.566 34.944 146.134 35.04 145.734 35.232C145.334 35.408 144.982 35.664 144.678 36C144.39 36.32 144.158 36.712 143.982 37.176C143.822 37.64 143.742 38.152 143.742 38.712C143.742 39.272 143.83 39.784 144.006 40.248C144.182 40.712 144.414 41.112 144.702 41.448C145.006 41.784 145.358 42.048 145.758 42.24C146.158 42.416 146.582 42.504 147.03 42.504C147.606 42.504 148.134 42.36 148.614 42.072C149.11 41.784 149.454 41.432 149.646 41.016L152.79 41.976C152.358 42.936 151.646 43.72 150.654 44.328C149.662 44.936 148.47 45.24 147.078 45.24C146.054 45.24 145.134 45.064 144.318 44.712C143.502 44.36 142.806 43.888 142.23 43.296C141.654 42.688 141.206 41.992 140.886 41.208C140.582 40.408 140.43 39.576 140.43 38.712ZM160.841 45H157.649V35.208H153.713V32.424H164.753V35.208H160.841V45ZM169.868 40.416L175.82 32.424H178.196V45H175.004V37.224L169.124 45H166.676V32.424H169.868V40.416ZM187.015 45.24C186.007 45.24 185.095 45.072 184.279 44.736C183.463 44.384 182.767 43.912 182.191 43.32C181.615 42.728 181.167 42.04 180.847 41.256C180.543 40.472 180.391 39.648 180.391 38.784C180.391 37.888 180.543 37.048 180.847 36.264C181.151 35.464 181.591 34.768 182.167 34.176C182.743 33.568 183.439 33.088 184.255 32.736C185.087 32.384 186.015 32.208 187.039 32.208C188.063 32.208 188.975 32.384 189.775 32.736C190.591 33.088 191.279 33.56 191.839 34.152C192.415 34.744 192.847 35.432 193.135 36.216C193.439 37 193.591 37.816 193.591 38.664C193.591 38.872 193.583 39.072 193.567 39.264C193.567 39.456 193.551 39.616 193.519 39.744H183.799C183.847 40.24 183.967 40.68 184.159 41.064C184.351 41.448 184.599 41.776 184.903 42.048C185.207 42.32 185.551 42.528 185.935 42.672C186.319 42.816 186.719 42.888 187.135 42.888C187.775 42.888 188.375 42.736 188.935 42.432C189.511 42.112 189.903 41.696 190.111 41.184L192.871 41.952C192.407 42.912 191.663 43.704 190.639 44.328C189.631 44.936 188.423 45.24 187.015 45.24ZM190.279 37.656C190.199 36.712 189.847 35.96 189.223 35.4C188.615 34.824 187.871 34.536 186.991 34.536C186.559 34.536 186.151 34.616 185.767 34.776C185.399 34.92 185.071 35.128 184.783 35.4C184.495 35.672 184.255 36 184.063 36.384C183.887 36.768 183.783 37.192 183.751 37.656H190.279ZM208.828 32.424C209.292 32.424 209.716 32.512 210.1 32.688C210.484 32.848 210.812 33.072 211.084 33.36C211.372 33.648 211.588 33.984 211.732 34.368C211.892 34.752 211.972 35.16 211.972 35.592C211.972 36.136 211.828 36.688 211.54 37.248C211.252 37.792 210.78 38.2 210.124 38.472C210.86 38.68 211.436 39.04 211.852 39.552C212.284 40.048 212.5 40.728 212.5 41.592C212.5 42.744 212.1 43.6 211.3 44.16C210.5 44.72 209.396 45 207.988 45H201.388V32.424H208.828ZM207.316 37.68C207.764 37.68 208.124 37.552 208.396 37.296C208.668 37.04 208.804 36.672 208.804 36.192C208.804 35.792 208.684 35.456 208.444 35.184C208.22 34.896 207.876 34.752 207.412 34.752H204.58V37.68H207.316ZM207.748 42.672C208.212 42.672 208.58 42.52 208.852 42.216C209.14 41.912 209.284 41.544 209.284 41.112C209.284 40.664 209.148 40.296 208.876 40.008C208.604 39.704 208.236 39.552 207.772 39.552H204.58V42.672H207.748ZM228.193 32.424H231.649L226.753 38.52L232.033 45H228.385L224.497 40.152H223.657V45H220.489V32.424H223.657V37.416H224.377L228.193 32.424ZM240.89 32.424C241.354 32.424 241.778 32.512 242.162 32.688C242.546 32.848 242.874 33.072 243.146 33.36C243.434 33.648 243.65 33.984 243.794 34.368C243.954 34.752 244.034 35.16 244.034 35.592C244.034 36.136 243.89 36.688 243.602 37.248C243.314 37.792 242.842 38.2 242.186 38.472C242.922 38.68 243.498 39.04 243.914 39.552C244.346 40.048 244.562 40.728 244.562 41.592C244.562 42.744 244.162 43.6 243.362 44.16C242.562 44.72 241.458 45 240.05 45H233.45V32.424H240.89ZM239.378 37.68C239.826 37.68 240.186 37.552 240.458 37.296C240.73 37.04 240.866 36.672 240.866 36.192C240.866 35.792 240.746 35.456 240.506 35.184C240.282 34.896 239.938 34.752 239.474 34.752H236.642V37.68H239.378ZM239.81 42.672C240.274 42.672 240.642 42.52 240.914 42.216C241.202 41.912 241.346 41.544 241.346 41.112C241.346 40.664 241.21 40.296 240.938 40.008C240.666 39.704 240.298 39.552 239.834 39.552H236.642V42.672H239.81ZM252.569 45.24C251.561 45.24 250.649 45.072 249.833 44.736C249.017 44.384 248.321 43.912 247.745 43.32C247.169 42.728 246.721 42.04 246.401 41.256C246.097 40.472 245.945 39.648 245.945 38.784C245.945 37.888 246.097 37.048 246.401 36.264C246.705 35.464 247.145 34.768 247.721 34.176C248.297 33.568 248.993 33.088 249.809 32.736C250.641 32.384 251.569 32.208 252.593 32.208C253.617 32.208 254.529 32.384 255.329 32.736C256.145 33.088 256.833 33.56 257.393 34.152C257.969 34.744 258.401 35.432 258.689 36.216C258.993 37 259.145 37.816 259.145 38.664C259.145 38.872 259.137 39.072 259.121 39.264C259.121 39.456 259.105 39.616 259.073 39.744H249.353C249.401 40.24 249.521 40.68 249.713 41.064C249.905 41.448 250.153 41.776 250.457 42.048C250.761 42.32 251.105 42.528 251.489 42.672C251.873 42.816 252.273 42.888 252.689 42.888C253.329 42.888 253.929 42.736 254.489 42.432C255.065 42.112 255.457 41.696 255.665 41.184L258.425 41.952C257.961 42.912 257.217 43.704 256.193 44.328C255.185 44.936 253.977 45.24 252.569 45.24ZM255.833 37.656C255.753 36.712 255.401 35.96 254.777 35.4C254.169 34.824 253.425 34.536 252.545 34.536C252.113 34.536 251.705 34.616 251.321 34.776C250.953 34.92 250.625 35.128 250.337 35.4C250.049 35.672 249.809 36 249.617 36.384C249.441 36.768 249.337 37.192 249.305 37.656H255.833ZM260.313 38.712C260.313 37.832 260.465 37 260.769 36.216C261.073 35.432 261.513 34.744 262.089 34.152C262.665 33.56 263.361 33.088 264.177 32.736C264.993 32.384 265.913 32.208 266.937 32.208C268.313 32.208 269.481 32.504 270.441 33.096C271.417 33.688 272.145 34.464 272.625 35.424L269.481 36.384C269.209 35.92 268.849 35.568 268.401 35.328C267.953 35.072 267.457 34.944 266.913 34.944C266.449 34.944 266.017 35.04 265.617 35.232C265.217 35.408 264.865 35.664 264.561 36C264.273 36.32 264.041 36.712 263.865 37.176C263.705 37.64 263.625 38.152 263.625 38.712C263.625 39.272 263.713 39.784 263.889 40.248C264.065 40.712 264.297 41.112 264.585 41.448C264.889 41.784 265.241 42.048 265.641 42.24C266.041 42.416 266.465 42.504 266.913 42.504C267.489 42.504 268.017 42.36 268.497 42.072C268.993 41.784 269.337 41.432 269.529 41.016L272.673 41.976C272.241 42.936 271.529 43.72 270.537 44.328C269.545 44.936 268.353 45.24 266.961 45.24C265.937 45.24 265.017 45.064 264.201 44.712C263.385 44.36 262.689 43.888 262.113 43.296C261.537 42.688 261.089 41.992 260.769 41.208C260.465 40.408 260.313 39.576 260.313 38.712ZM280.724 45H277.532V35.208H273.596V32.424H284.636V35.208H280.724V45ZM291.734 45.24C290.726 45.24 289.814 45.072 288.998 44.736C288.182 44.384 287.486 43.912 286.91 43.32C286.334 42.728 285.886 42.04 285.566 41.256C285.262 40.472 285.11 39.648 285.11 38.784C285.11 37.888 285.262 37.048 285.566 36.264C285.87 35.464 286.31 34.768 286.886 34.176C287.462 33.568 288.158 33.088 288.974 32.736C289.806 32.384 290.734 32.208 291.758 32.208C292.782 32.208 293.694 32.384 294.494 32.736C295.31 33.088 295.998 33.56 296.557 34.152C297.134 34.744 297.566 35.432 297.854 36.216C298.158 37 298.31 37.816 298.31 38.664C298.31 38.872 298.302 39.072 298.286 39.264C298.286 39.456 298.27 39.616 298.238 39.744H288.518C288.566 40.24 288.686 40.68 288.878 41.064C289.07 41.448 289.318 41.776 289.622 42.048C289.926 42.32 290.27 42.528 290.654 42.672C291.038 42.816 291.438 42.888 291.854 42.888C292.494 42.888 293.094 42.736 293.654 42.432C294.23 42.112 294.622 41.696 294.83 41.184L297.59 41.952C297.126 42.912 296.382 43.704 295.358 44.328C294.35 44.936 293.142 45.24 291.734 45.24ZM294.998 37.656C294.918 36.712 294.566 35.96 293.942 35.4C293.334 34.824 292.59 34.536 291.71 34.536C291.278 34.536 290.87 34.616 290.486 34.776C290.118 34.92 289.79 35.128 289.502 35.4C289.214 35.672 288.974 36 288.782 36.384C288.606 36.768 288.502 37.192 288.47 37.656H294.998Z" fill="#F9A135"/>
<path d="M107.8 60.68C106.12 61.0533 104.787 61.7733 103.8 62.84C102.84 63.9067 102.187 65.44 101.84 67.44C102.667 66.4267 103.667 65.6533 104.84 65.12C106.013 64.56 107.333 64.28 108.8 64.28C110.08 64.28 111.28 64.5333 112.4 65.04C113.52 65.5467 114.493 66.24 115.32 67.12C116.173 68 116.84 69.04 117.32 70.24C117.827 71.44 118.08 72.7333 118.08 74.12C118.08 75.56 117.827 76.9067 117.32 78.16C116.84 79.4133 116.133 80.5067 115.2 81.44C114.293 82.3467 113.173 83.0667 111.84 83.6C110.507 84.1333 109 84.4 107.32 84.4C103.853 84.4 101.227 83.32 99.44 81.16C97.6533 78.9733 96.76 75.7867 96.76 71.6C96.76 69.2267 96.9867 67.16 97.44 65.4C97.8933 63.6133 98.5733 62.1067 99.48 60.88C100.413 59.6267 101.56 58.6133 102.92 57.84C104.307 57.0667 105.907 56.48 107.72 56.08L115.48 54.36L115.84 58.88L107.8 60.68ZM102.24 74C102.24 74.88 102.373 75.68 102.64 76.4C102.907 77.12 103.267 77.7467 103.72 78.28C104.173 78.7867 104.72 79.1867 105.36 79.48C106 79.7733 106.707 79.92 107.48 79.92C109 79.92 110.227 79.4 111.16 78.36C112.093 77.2933 112.56 75.8933 112.56 74.16C112.56 72.56 112.08 71.2667 111.12 70.28C110.16 69.2667 108.893 68.76 107.32 68.76C105.827 68.76 104.6 69.24 103.64 70.2C102.707 71.16 102.24 72.4267 102.24 74ZM131.496 84.4C129.816 84.4 128.296 84.12 126.936 83.56C125.576 82.9733 124.416 82.1867 123.456 81.2C122.496 80.2133 121.749 79.0667 121.216 77.76C120.709 76.4533 120.456 75.08 120.456 73.64C120.456 72.1467 120.709 70.7467 121.216 69.44C121.723 68.1067 122.456 66.9467 123.416 65.96C124.376 64.9467 125.536 64.1467 126.896 63.56C128.283 62.9733 129.829 62.68 131.536 62.68C133.243 62.68 134.763 62.9733 136.096 63.56C137.456 64.1467 138.603 64.9333 139.536 65.92C140.496 66.9067 141.216 68.0533 141.696 69.36C142.203 70.6667 142.456 72.0267 142.456 73.44C142.456 73.7867 142.443 74.12 142.416 74.44C142.416 74.76 142.389 75.0267 142.336 75.24H126.136C126.216 76.0667 126.416 76.8 126.736 77.44C127.056 78.08 127.469 78.6267 127.976 79.08C128.483 79.5333 129.056 79.88 129.696 80.12C130.336 80.36 131.003 80.48 131.696 80.48C132.763 80.48 133.763 80.2267 134.696 79.72C135.656 79.1867 136.309 78.4933 136.656 77.64L141.256 78.92C140.483 80.52 139.243 81.84 137.536 82.88C135.856 83.8933 133.843 84.4 131.496 84.4ZM136.936 71.76C136.803 70.1867 136.216 68.9333 135.176 68C134.163 67.04 132.923 66.56 131.456 66.56C130.736 66.56 130.056 66.6933 129.416 66.96C128.803 67.2 128.256 67.5467 127.776 68C127.296 68.4533 126.896 69 126.576 69.64C126.283 70.28 126.109 70.9867 126.056 71.76H136.936ZM144.401 73.52C144.401 72.0533 144.655 70.6667 145.161 69.36C145.668 68.0533 146.401 66.9067 147.361 65.92C148.321 64.9333 149.481 64.1467 150.841 63.56C152.201 62.9733 153.735 62.68 155.441 62.68C157.735 62.68 159.681 63.1733 161.281 64.16C162.908 65.1467 164.121 66.44 164.921 68.04L159.681 69.64C159.228 68.8667 158.628 68.28 157.881 67.88C157.135 67.4533 156.308 67.24 155.401 67.24C154.628 67.24 153.908 67.4 153.241 67.72C152.575 68.0133 151.988 68.44 151.481 69C151.001 69.5333 150.615 70.1867 150.321 70.96C150.055 71.7333 149.921 72.5867 149.921 73.52C149.921 74.4533 150.068 75.3067 150.361 76.08C150.655 76.8533 151.041 77.52 151.521 78.08C152.028 78.64 152.615 79.08 153.281 79.4C153.948 79.6933 154.655 79.84 155.401 79.84C156.361 79.84 157.241 79.6 158.041 79.12C158.868 78.64 159.441 78.0533 159.761 77.36L165.001 78.96C164.281 80.56 163.095 81.8667 161.441 82.88C159.788 83.8933 157.801 84.4 155.481 84.4C153.775 84.4 152.241 84.1067 150.881 83.52C149.521 82.9333 148.361 82.1467 147.401 81.16C146.441 80.1467 145.695 78.9867 145.161 77.68C144.655 76.3467 144.401 74.96 144.401 73.52ZM186.739 84H181.419V67.68H173.699V84H168.379V63.04H186.739V84ZM189.539 79.44C190.312 79.3867 190.939 79.2267 191.419 78.96C191.925 78.6933 192.339 78.2 192.659 77.48C193.005 76.76 193.285 75.7733 193.499 74.52C193.739 73.24 193.979 71.5733 194.219 69.52L194.939 63.04H209.619V84H204.299V67.52H199.619L199.219 70.68C198.899 73.32 198.512 75.5067 198.059 77.24C197.605 78.9467 197.019 80.3067 196.299 81.32C195.605 82.3333 194.739 83.0533 193.699 83.48C192.659 83.88 191.379 84.1067 189.859 84.16L189.539 79.44ZM220.308 84.4C219.295 84.4 218.348 84.24 217.468 83.92C216.588 83.5733 215.828 83.1067 215.188 82.52C214.548 81.9067 214.042 81.2 213.668 80.4C213.322 79.6 213.148 78.72 213.148 77.76C213.148 76.7733 213.362 75.8667 213.788 75.04C214.242 74.1867 214.855 73.4667 215.628 72.88C216.428 72.2933 217.375 71.84 218.468 71.52C219.562 71.1733 220.762 71 222.068 71C223.002 71 223.908 71.08 224.788 71.24C225.695 71.4 226.495 71.6267 227.188 71.92V70.72C227.188 69.3333 226.788 68.2667 225.988 67.52C225.215 66.7733 224.055 66.4 222.508 66.4C221.388 66.4 220.295 66.6 219.228 67C218.162 67.4 217.068 67.9867 215.948 68.76L214.308 65.36C217.002 63.5733 219.908 62.68 223.028 62.68C226.042 62.68 228.375 63.4267 230.028 64.92C231.708 66.3867 232.548 68.52 232.548 71.32V77.84C232.548 78.4 232.642 78.8 232.828 79.04C233.042 79.28 233.375 79.4133 233.828 79.44V84C232.922 84.1867 232.135 84.28 231.468 84.28C230.455 84.28 229.668 84.0533 229.108 83.6C228.575 83.1467 228.242 82.5467 228.108 81.8L227.988 80.64C227.055 81.8667 225.922 82.8 224.588 83.44C223.255 84.08 221.828 84.4 220.308 84.4ZM221.828 80.48C222.735 80.48 223.588 80.32 224.388 80C225.215 79.68 225.855 79.2533 226.308 78.72C226.895 78.2667 227.188 77.76 227.188 77.2V74.8C226.548 74.56 225.855 74.3733 225.108 74.24C224.362 74.08 223.642 74 222.948 74C221.562 74 220.428 74.32 219.548 74.96C218.668 75.5733 218.228 76.36 218.228 77.32C218.228 78.2267 218.575 78.9867 219.268 79.6C219.962 80.1867 220.815 80.48 221.828 80.48ZM247.169 84H241.849V67.68H235.289V63.04H253.689V67.68H247.169V84ZM262.215 70.96H270.535V63.04H275.855V84H270.535V75.52H262.215V84H256.895V63.04H262.215V70.96ZM290.44 84.4C288.734 84.4 287.2 84.1067 285.84 83.52C284.48 82.9333 283.32 82.1467 282.36 81.16C281.427 80.1467 280.707 78.9867 280.2 77.68C279.694 76.3733 279.44 75 279.44 73.56C279.44 72.0933 279.694 70.7067 280.2 69.4C280.707 68.0933 281.427 66.9467 282.36 65.96C283.32 64.9467 284.48 64.1467 285.84 63.56C287.2 62.9733 288.734 62.68 290.44 62.68C292.147 62.68 293.667 62.9733 295 63.56C296.36 64.1467 297.507 64.9467 298.44 65.96C299.4 66.9467 300.134 68.0933 300.64 69.4C301.147 70.7067 301.4 72.0933 301.4 73.56C301.4 75 301.147 76.3733 300.64 77.68C300.134 78.9867 299.414 80.1467 298.48 81.16C297.547 82.1467 296.4 82.9333 295.04 83.52C293.68 84.1067 292.147 84.4 290.44 84.4ZM284.96 73.56C284.96 74.4933 285.094 75.3467 285.36 76.12C285.654 76.8667 286.04 77.52 286.52 78.08C287.027 78.64 287.614 79.08 288.28 79.4C288.947 79.6933 289.667 79.84 290.44 79.84C291.214 79.84 291.934 79.6933 292.6 79.4C293.267 79.08 293.84 78.64 294.32 78.08C294.827 77.52 295.214 76.8533 295.48 76.08C295.774 75.3067 295.92 74.4533 295.92 73.52C295.92 72.6133 295.774 71.7733 295.48 71C295.214 70.2267 294.827 69.56 294.32 69C293.84 68.44 293.267 68.0133 292.6 67.72C291.934 67.4 291.214 67.24 290.44 67.24C289.667 67.24 288.947 67.4 288.28 67.72C287.614 68.04 287.027 68.48 286.52 69.04C286.04 69.6 285.654 70.2667 285.36 71.04C285.094 71.8133 284.96 72.6533 284.96 73.56Z" fill="#F9A135"/>
<path d="M107.8 60.68C106.12 61.0533 104.787 61.7733 103.8 62.84C102.84 63.9067 102.187 65.44 101.84 67.44C102.667 66.4267 103.667 65.6533 104.84 65.12C106.013 64.56 107.333 64.28 108.8 64.28C110.08 64.28 111.28 64.5333 112.4 65.04C113.52 65.5467 114.493 66.24 115.32 67.12C116.173 68 116.84 69.04 117.32 70.24C117.827 71.44 118.08 72.7333 118.08 74.12C118.08 75.56 117.827 76.9067 117.32 78.16C116.84 79.4133 116.133 80.5067 115.2 81.44C114.293 82.3467 113.173 83.0667 111.84 83.6C110.507 84.1333 109 84.4 107.32 84.4C103.853 84.4 101.227 83.32 99.44 81.16C97.6533 78.9733 96.76 75.7867 96.76 71.6C96.76 69.2267 96.9867 67.16 97.44 65.4C97.8933 63.6133 98.5733 62.1067 99.48 60.88C100.413 59.6267 101.56 58.6133 102.92 57.84C104.307 57.0667 105.907 56.48 107.72 56.08L115.48 54.36L115.84 58.88L107.8 60.68ZM102.24 74C102.24 74.88 102.373 75.68 102.64 76.4C102.907 77.12 103.267 77.7467 103.72 78.28C104.173 78.7867 104.72 79.1867 105.36 79.48C106 79.7733 106.707 79.92 107.48 79.92C109 79.92 110.227 79.4 111.16 78.36C112.093 77.2933 112.56 75.8933 112.56 74.16C112.56 72.56 112.08 71.2667 111.12 70.28C110.16 69.2667 108.893 68.76 107.32 68.76C105.827 68.76 104.6 69.24 103.64 70.2C102.707 71.16 102.24 72.4267 102.24 74ZM131.496 84.4C129.816 84.4 128.296 84.12 126.936 83.56C125.576 82.9733 124.416 82.1867 123.456 81.2C122.496 80.2133 121.749 79.0667 121.216 77.76C120.709 76.4533 120.456 75.08 120.456 73.64C120.456 72.1467 120.709 70.7467 121.216 69.44C121.723 68.1067 122.456 66.9467 123.416 65.96C124.376 64.9467 125.536 64.1467 126.896 63.56C128.283 62.9733 129.829 62.68 131.536 62.68C133.243 62.68 134.763 62.9733 136.096 63.56C137.456 64.1467 138.603 64.9333 139.536 65.92C140.496 66.9067 141.216 68.0533 141.696 69.36C142.203 70.6667 142.456 72.0267 142.456 73.44C142.456 73.7867 142.443 74.12 142.416 74.44C142.416 74.76 142.389 75.0267 142.336 75.24H126.136C126.216 76.0667 126.416 76.8 126.736 77.44C127.056 78.08 127.469 78.6267 127.976 79.08C128.483 79.5333 129.056 79.88 129.696 80.12C130.336 80.36 131.003 80.48 131.696 80.48C132.763 80.48 133.763 80.2267 134.696 79.72C135.656 79.1867 136.309 78.4933 136.656 77.64L141.256 78.92C140.483 80.52 139.243 81.84 137.536 82.88C135.856 83.8933 133.843 84.4 131.496 84.4ZM136.936 71.76C136.803 70.1867 136.216 68.9333 135.176 68C134.163 67.04 132.923 66.56 131.456 66.56C130.736 66.56 130.056 66.6933 129.416 66.96C128.803 67.2 128.256 67.5467 127.776 68C127.296 68.4533 126.896 69 126.576 69.64C126.283 70.28 126.109 70.9867 126.056 71.76H136.936ZM144.401 73.52C144.401 72.0533 144.655 70.6667 145.161 69.36C145.668 68.0533 146.401 66.9067 147.361 65.92C148.321 64.9333 149.481 64.1467 150.841 63.56C152.201 62.9733 153.735 62.68 155.441 62.68C157.735 62.68 159.681 63.1733 161.281 64.16C162.908 65.1467 164.121 66.44 164.921 68.04L159.681 69.64C159.228 68.8667 158.628 68.28 157.881 67.88C157.135 67.4533 156.308 67.24 155.401 67.24C154.628 67.24 153.908 67.4 153.241 67.72C152.575 68.0133 151.988 68.44 151.481 69C151.001 69.5333 150.615 70.1867 150.321 70.96C150.055 71.7333 149.921 72.5867 149.921 73.52C149.921 74.4533 150.068 75.3067 150.361 76.08C150.655 76.8533 151.041 77.52 151.521 78.08C152.028 78.64 152.615 79.08 153.281 79.4C153.948 79.6933 154.655 79.84 155.401 79.84C156.361 79.84 157.241 79.6 158.041 79.12C158.868 78.64 159.441 78.0533 159.761 77.36L165.001 78.96C164.281 80.56 163.095 81.8667 161.441 82.88C159.788 83.8933 157.801 84.4 155.481 84.4C153.775 84.4 152.241 84.1067 150.881 83.52C149.521 82.9333 148.361 82.1467 147.401 81.16C146.441 80.1467 145.695 78.9867 145.161 77.68C144.655 76.3467 144.401 74.96 144.401 73.52ZM186.739 84H181.419V67.68H173.699V84H168.379V63.04H186.739V84ZM189.539 79.44C190.312 79.3867 190.939 79.2267 191.419 78.96C191.925 78.6933 192.339 78.2 192.659 77.48C193.005 76.76 193.285 75.7733 193.499 74.52C193.739 73.24 193.979 71.5733 194.219 69.52L194.939 63.04H209.619V84H204.299V67.52H199.619L199.219 70.68C198.899 73.32 198.512 75.5067 198.059 77.24C197.605 78.9467 197.019 80.3067 196.299 81.32C195.605 82.3333 194.739 83.0533 193.699 83.48C192.659 83.88 191.379 84.1067 189.859 84.16L189.539 79.44ZM220.308 84.4C219.295 84.4 218.348 84.24 217.468 83.92C216.588 83.5733 215.828 83.1067 215.188 82.52C214.548 81.9067 214.042 81.2 213.668 80.4C213.322 79.6 213.148 78.72 213.148 77.76C213.148 76.7733 213.362 75.8667 213.788 75.04C214.242 74.1867 214.855 73.4667 215.628 72.88C216.428 72.2933 217.375 71.84 218.468 71.52C219.562 71.1733 220.762 71 222.068 71C223.002 71 223.908 71.08 224.788 71.24C225.695 71.4 226.495 71.6267 227.188 71.92V70.72C227.188 69.3333 226.788 68.2667 225.988 67.52C225.215 66.7733 224.055 66.4 222.508 66.4C221.388 66.4 220.295 66.6 219.228 67C218.162 67.4 217.068 67.9867 215.948 68.76L214.308 65.36C217.002 63.5733 219.908 62.68 223.028 62.68C226.042 62.68 228.375 63.4267 230.028 64.92C231.708 66.3867 232.548 68.52 232.548 71.32V77.84C232.548 78.4 232.642 78.8 232.828 79.04C233.042 79.28 233.375 79.4133 233.828 79.44V84C232.922 84.1867 232.135 84.28 231.468 84.28C230.455 84.28 229.668 84.0533 229.108 83.6C228.575 83.1467 228.242 82.5467 228.108 81.8L227.988 80.64C227.055 81.8667 225.922 82.8 224.588 83.44C223.255 84.08 221.828 84.4 220.308 84.4ZM221.828 80.48C222.735 80.48 223.588 80.32 224.388 80C225.215 79.68 225.855 79.2533 226.308 78.72C226.895 78.2667 227.188 77.76 227.188 77.2V74.8C226.548 74.56 225.855 74.3733 225.108 74.24C224.362 74.08 223.642 74 222.948 74C221.562 74 220.428 74.32 219.548 74.96C218.668 75.5733 218.228 76.36 218.228 77.32C218.228 78.2267 218.575 78.9867 219.268 79.6C219.962 80.1867 220.815 80.48 221.828 80.48ZM247.169 84H241.849V67.68H235.289V63.04H253.689V67.68H247.169V84ZM262.215 70.96H270.535V63.04H275.855V84H270.535V75.52H262.215V84H256.895V63.04H262.215V70.96ZM290.44 84.4C288.734 84.4 287.2 84.1067 285.84 83.52C284.48 82.9333 283.32 82.1467 282.36 81.16C281.427 80.1467 280.707 78.9867 280.2 77.68C279.694 76.3733 279.44 75 279.44 73.56C279.44 72.0933 279.694 70.7067 280.2 69.4C280.707 68.0933 281.427 66.9467 282.36 65.96C283.32 64.9467 284.48 64.1467 285.84 63.56C287.2 62.9733 288.734 62.68 290.44 62.68C292.147 62.68 293.667 62.9733 295 63.56C296.36 64.1467 297.507 64.9467 298.44 65.96C299.4 66.9467 300.134 68.0933 300.64 69.4C301.147 70.7067 301.4 72.0933 301.4 73.56C301.4 75 301.147 76.3733 300.64 77.68C300.134 78.9867 299.414 80.1467 298.48 81.16C297.547 82.1467 296.4 82.9333 295.04 83.52C293.68 84.1067 292.147 84.4 290.44 84.4ZM284.96 73.56C284.96 74.4933 285.094 75.3467 285.36 76.12C285.654 76.8667 286.04 77.52 286.52 78.08C287.027 78.64 287.614 79.08 288.28 79.4C288.947 79.6933 289.667 79.84 290.44 79.84C291.214 79.84 291.934 79.6933 292.6 79.4C293.267 79.08 293.84 78.64 294.32 78.08C294.827 77.52 295.214 76.8533 295.48 76.08C295.774 75.3067 295.92 74.4533 295.92 73.52C295.92 72.6133 295.774 71.7733 295.48 71C295.214 70.2267 294.827 69.56 294.32 69C293.84 68.44 293.267 68.0133 292.6 67.72C291.934 67.4 291.214 67.24 290.44 67.24C289.667 67.24 288.947 67.4 288.28 67.72C287.614 68.04 287.027 68.48 286.52 69.04C286.04 69.6 285.654 70.2667 285.36 71.04C285.094 71.8133 284.96 72.6533 284.96 73.56Z" fill="url(#paint0_radial_285_6662)"/>
<path d="M72.1473 61.1549C72.3716 62.1907 71.749 63.2216 70.7279 63.5053L65.2239 65.0342C64.2625 65.3012 63.2512 64.8187 62.854 63.9033L39.323 9.68147C38.6153 8.05055 39.4731 6.16538 41.1677 5.62767L55.7614 0.996963C57.4466 0.462213 59.2265 1.49347 59.6007 3.22148L72.1473 61.1549Z" fill="#F9A135"/>
<path d="M65.9376 79.7515C65.239 77.5499 65.3356 75.8336 66.2274 74.6024C67.104 73.3234 68.3812 72.4176 70.059 71.8853C71.6902 71.3677 73.2326 71.3787 74.6863 71.9183C76.1248 72.4101 77.1933 73.7567 77.8919 75.9583C78.5601 78.0641 78.4635 79.7804 77.6021 81.1073C76.7255 82.3864 75.4716 83.2847 73.8404 83.8023C72.1626 84.3347 70.5968 84.331 69.1432 83.7914C67.6743 83.2039 66.6058 81.8573 65.9376 79.7515Z" fill="#F9A135"/>
<defs>
<radialGradient id="paint0_radial_285_6662" cx="0" cy="0" r="1" gradientUnits="userSpaceOnUse" gradientTransform="translate(335.5 34.5) rotate(158.372) scale(184.489 816.463)">
<stop stop-color="#AC4C3E"/>
<stop offset="1" stop-color="#AC4C3E" stop-opacity="0"/>
</radialGradient>
</defs>
</svg>
